<?xml version="1.0" encoding="UTF-8" standalone="no"?>
<!-- Created with Inkscape (http://www.inkscape.org/) -->

<svg
   width="1920"
   height="1080"
   viewBox="0 0 508 285.75"
   version="1.1"
   id="svg5"
   inkscape:version="1.1 (c68e22c387, 2021-05-23)"
   xmlns:inkscape="http://www.inkscape.org/namespaces/inkscape"
   xmlns:sodipodi="http://sodipodi.sourceforge.net/DTD/sodipodi-0.dtd"
   xmlns="http://www.w3.org/2000/svg"
   xmlns:svg="http://www.w3.org/2000/svg">
  <sodipodi:namedview
     id="namedview7"
     pagecolor="#ffffff"
     bordercolor="#666666"
     borderopacity="1.0"
     inkscape:pageshadow="2"
     inkscape:pageopacity="0.0"
     inkscape:pagecheckerboard="0"
     inkscape:document-units="px"
     showgrid="false"
     units="px"
     inkscape:zoom="0.46324355"
     inkscape:cx="821.38219"
     inkscape:cy="553.70442"
     inkscape:window-width="1920"
     inkscape:window-height="1017"
     inkscape:window-x="1358"
     inkscape:window-y="-8"
     inkscape:window-maximized="1"
     inkscape:current-layer="layer1" />
  <defs
     id="defs2" />
  <g
     inkscape:label="Calque 1"
     inkscape:groupmode="layer"
     id="layer1">
    <rect
       style="opacity:0.72;fill:#803300;stroke-width:0.264583"
       id="rect928"
       width="508.89807"
       height="289.00385"
       x="0.17586575"
       y="-0.19794385" />
    <g
       id="g3182"
       transform="translate(-7.4249969,-7.4250005)">
      <path
         style="fill:#b9b9b9;fill-opacity:1;stroke-width:0.614111"
         d="m 200.73652,278.3416 c 0.51996,-0.15124 1.14122,-0.13265 1.38057,0.0413 0.23935,0.17398 -0.18608,0.29773 -0.94539,0.275 -0.83911,-0.0251 -1.00978,-0.14919 -0.43518,-0.31633 z m 5.31755,-1.47486 c 0.0147,-0.86391 0.17611,-1.15394 0.35873,-0.64451 0.18263,0.50942 0.17062,1.21626 -0.0267,1.57074 -0.19731,0.35447 -0.34673,-0.0623 -0.33205,-0.92623 z m 21.1546,-2.20263 c -0.39089,-0.74621 -0.30815,-0.80635 0.40323,-0.2931 0.49226,0.35516 0.71357,0.77764 0.4918,0.93884 -0.22177,0.16121 -0.62453,-0.12938 -0.89503,-0.64574 z m 93.23198,-0.15348 c -0.6492,-0.30496 -0.73804,-0.51075 -0.22259,-0.51556 0.47182,-0.004 1.05819,0.22759 1.30303,0.51556 0.55268,0.65004 0.30333,0.65004 -1.08044,0 z M 166.35426,220.80012 c 0.0346,-0.60994 0.20524,-0.734 0.43517,-0.31633 0.20807,0.37796 0.18249,0.82955 -0.0568,1.00353 -0.23935,0.17398 -0.40959,-0.13526 -0.37832,-0.6872 z M 142.5845,204.56917 c 0.0346,-0.60995 0.20524,-0.73401 0.43518,-0.31633 0.20807,0.37795 0.18248,0.82954 -0.0569,1.00352 -0.23935,0.17398 -0.40959,-0.13526 -0.37831,-0.68719 z m 193.86976,-64.61842 c 0,-1.00789 0.14824,-1.4202 0.32941,-0.91626 0.18117,0.50395 0.18117,1.32858 0,1.83253 -0.18117,0.50394 -0.32941,0.0916 -0.32941,-0.91627 z m -36.84532,-35.90881 c 0.0346,-0.60994 0.20524,-0.734 0.43518,-0.31633 0.20807,0.37796 0.18248,0.82955 -0.0568,1.00353 -0.23934,0.17398 -0.40958,-0.13526 -0.37831,-0.6872 z m -75.63104,-3.14147 c 0.0346,-0.60995 0.20524,-0.73401 0.43518,-0.31633 0.20807,0.37795 0.18248,0.82954 -0.0568,1.00353 -0.23936,0.17398 -0.40959,-0.13527 -0.37832,-0.6872 z m 95.74245,-21.359017 c 0,-0.108721 0.56723,-0.52104 1.26052,-0.916263 1.14243,-0.651265 1.16791,-0.632746 0.27195,0.197682 -0.94097,0.872152 -1.53247,1.149508 -1.53247,0.718581 z m 11.16458,-2.943793 c 0.71705,-0.575937 1.46579,-1.047158 1.66387,-1.047158 0.19808,0 -0.22652,0.471221 -0.94357,1.047158 -0.71705,0.575937 -1.46579,1.047159 -1.66387,1.047159 -0.19808,0 0.22653,-0.471222 0.94357,-1.047159 z"
         id="path3196" />
      <path
         style="fill:#a3a3a3;fill-opacity:1;stroke-width:0.614111"
         d="m 234.06204,276.82311 c 0.0346,-0.60995 0.20524,-0.73401 0.43518,-0.31633 0.20807,0.37795 0.18248,0.82955 -0.0568,1.00353 -0.23935,0.17398 -0.40958,-0.13527 -0.37831,-0.6872 z m -4.26491,-2.31248 c 0,-0.71992 0.16349,-1.01443 0.36331,-0.65447 0.19982,0.35996 0.19982,0.94898 0,1.30895 -0.19982,0.35996 -0.36331,0.0654 -0.36331,-0.65448 z m 11.81746,-0.3701 c -0.39089,-0.74621 -0.30816,-0.80634 0.40322,-0.2931 0.49226,0.35516 0.71357,0.77764 0.4918,0.93884 -0.22177,0.16121 -0.62453,-0.12938 -0.89502,-0.64574 z m 123.54125,-68.52421 c 0.0346,-0.60994 0.20524,-0.734 0.43517,-0.31633 0.20808,0.37796 0.18249,0.82955 -0.0568,1.00353 -0.23934,0.17398 -0.40959,-0.13526 -0.37831,-0.6872 z M 149.01029,144.46529 c 0,-0.10873 0.56724,-0.52104 1.26052,-0.91627 1.14243,-0.65126 1.16791,-0.63274 0.27196,0.19768 -0.94098,0.87216 -1.53248,1.14951 -1.53248,0.71859 z m 23.88349,-2.42022 c 0,-0.71992 0.16349,-1.01443 0.36331,-0.65447 0.19981,0.35996 0.19981,0.94898 0,1.30895 -0.19982,0.35996 -0.36331,0.0654 -0.36331,-0.65448 z m 131.75723,-40.09744 c 0.0346,-0.60995 0.20524,-0.73401 0.43517,-0.31634 0.20808,0.37796 0.18249,0.82955 -0.0568,1.00353 -0.23934,0.17398 -0.40959,-0.13526 -0.37831,-0.68719 z M 238.95536,91.388775 c -0.89595,-0.830428 -0.87047,-0.848947 0.27196,-0.197682 0.69328,0.395223 1.26052,0.807542 1.26052,0.916263 0,0.430927 -0.5915,0.153571 -1.53248,-0.718581 z"
         id="path3194" />
      <path
         style="fill:#8c8c8c;fill-opacity:1;stroke-width:0.614111"
         d="m 218.93583,278.39385 c 0.0346,-0.60995 0.20525,-0.73401 0.43518,-0.31633 0.20807,0.37795 0.18249,0.82954 -0.0568,1.00352 -0.23936,0.17398 -0.40959,-0.13526 -0.37832,-0.68719 z m -22.99259,-1.26532 c 0,-0.71992 0.16349,-1.01444 0.36331,-0.65448 0.19981,0.35996 0.19981,0.94899 0,1.30895 -0.19982,0.35996 -0.36331,0.0654 -0.36331,-0.65447 z m 22.99259,-1.35258 c 0.0346,-0.60994 0.20525,-0.73401 0.43518,-0.31633 0.20807,0.37795 0.18249,0.82955 -0.0568,1.00353 -0.23936,0.17398 -0.40959,-0.13526 -0.37832,-0.6872 z m -15.1262,-74.34826 c 0.0346,-0.60994 0.20524,-0.73401 0.43517,-0.31633 0.20807,0.37796 0.18249,0.82955 -0.0568,1.00353 -0.23936,0.17398 -0.40959,-0.13526 -0.37831,-0.6872 z m 49.8236,-2.14982 c 0.69328,-0.13169 1.82775,-0.13169 2.52103,0 0.69329,0.1317 0.12606,0.23945 -1.26051,0.23945 -1.38657,0 -1.9538,-0.10775 -1.26052,-0.23945 z m 82.71079,-55.96748 c 0.0346,-0.60994 0.20524,-0.73401 0.43517,-0.31633 0.20807,0.37795 0.18249,0.82955 -0.0568,1.00353 -0.23935,0.17398 -0.40959,-0.13526 -0.37831,-0.6872 z m -90.906,-24.17191 c -0.89595,-0.83043 -0.87047,-0.84895 0.27196,-0.19769 0.69328,0.39523 1.26052,0.80755 1.26052,0.91627 0,0.43093 -0.5915,0.15357 -1.53248,-0.71858 z M 126.738,92.523199 c 0.0346,-0.609944 0.20524,-0.734006 0.43517,-0.316331 0.20808,0.377956 0.18249,0.829543 -0.0569,1.003528 -0.23935,0.173981 -0.40959,-0.135261 -0.37832,-0.687197 z m 126.53508,-12.10641 c 0.89137,-0.1248 2.34997,-0.1248 3.24133,0 0.89137,0.124795 0.16207,0.226903 -1.62066,0.226903 -1.78273,0 -2.51203,-0.102108 -1.62067,-0.226903 z m -107.8074,-7.266024 c 0.0346,-0.609944 0.20524,-0.734006 0.43518,-0.316331 0.20807,0.377956 0.18248,0.829543 -0.0569,1.003529 -0.23935,0.17398 -0.40959,-0.135262 -0.37831,-0.687198 z m 62.51697,-29.931284 c -0.89595,-0.830426 -0.87048,-0.848945 0.27196,-0.19768 1.19983,0.683987 1.58139,1.113943 0.98856,1.113943 -0.14957,0 -0.7168,-0.412318 -1.26052,-0.916263 z"
         id="path3192" />
      <path
         style="fill:#767676;fill-opacity:1;stroke-width:0.614111"
         d="m 268.57936,277.68301 c 0,-1.49754 1.06279,-1.71511 1.18432,-0.24245 0.0571,0.69229 -0.18597,1.25871 -0.54022,1.25871 -0.35425,0 -0.6441,-0.45732 -0.6441,-1.01626 z m 42.16806,0.005 c -0.22793,-0.26808 -0.13901,-0.61112 0.19758,-0.76234 0.33661,-0.15121 0.612,0.0681 0.612,0.4874 0,0.88284 -0.22713,0.95998 -0.80958,0.27494 z M 194.19684,232.03574 c 0.4886,-0.35783 1.06981,-0.5187 1.29158,-0.35749 0.22177,0.1612 -0.17799,0.45397 -0.88836,0.65059 -1.02657,0.28413 -1.1093,0.224 -0.40322,-0.2931 z m 81.64235,-7.04698 c 0.0346,-0.60995 0.20524,-0.73401 0.43517,-0.31633 0.20807,0.37795 0.18249,0.82955 -0.0568,1.00353 -0.23935,0.17398 -0.40959,-0.13527 -0.37831,-0.6872 z m 22.27229,-7.54827 c 0,-0.28797 0.34327,-0.52358 0.76281,-0.52358 0.41954,0 0.56248,0.23561 0.31764,0.52358 -0.24485,0.28797 -0.58811,0.52358 -0.76281,0.52358 -0.1747,0 -0.31764,-0.23561 -0.31764,-0.52358 z M 126.36729,181.68362 c 0.2705,-0.51636 0.67326,-0.80695 0.89503,-0.64575 0.22177,0.16121 4.5e-4,0.58369 -0.49181,0.93885 -0.71138,0.51324 -0.79411,0.45311 -0.40322,-0.2931 z m 27.32493,-26.9009 c -2.90467,-1.12038 -2.86206,-1.06789 -1.72331,-2.12251 0.91204,-0.84467 0.88868,-0.86375 -0.25751,-0.21034 -1.52871,0.87148 -2.90676,0.21461 -4.62921,-2.20656 -1.31888,-1.8539 -1.94585,-5.58034 -0.93888,-5.58034 0.38835,0 0.7061,0.50007 0.7061,1.11126 0,0.88737 0.20098,0.99002 0.9975,0.50951 0.79837,-0.48163 1.09551,-0.31789 1.48848,0.82022 1.76833,5.12142 9.90802,7.54017 15.72246,4.67201 1.40963,-0.69535 2.75139,-1.16658 2.9817,-1.04716 0.2303,0.11941 0.26959,0.0694 0.0873,-0.11106 -0.18228,-0.1805 0.14186,-0.99343 0.7203,-1.80653 1.35047,-1.89829 1.35047,-5.87463 0,-7.77293 -0.57844,-0.81309 -0.82154,-1.64566 -0.54022,-1.85016 0.28132,-0.20448 0.0253,-0.29326 -0.56895,-0.19727 -0.59816,0.0966 -0.9921,-0.13499 -0.88252,-0.51887 0.10885,-0.38136 -0.10051,-0.55932 -0.46526,-0.39546 -0.36474,0.16386 -1.58828,-0.0528 -2.71895,-0.48144 -1.13068,-0.42865 -2.76595,-0.78081 -3.63394,-0.78259 -0.86798,-0.002 -1.80943,-0.27524 -2.0921,-0.6077 -0.30675,-0.36078 -0.19876,-0.46288 0.26786,-0.25325 0.43,0.19318 0.98542,0.11177 1.23425,-0.18089 0.24883,-0.29267 0.09,-0.53212 -0.35289,-0.53212 -0.44292,0 -0.62038,-0.2175 -0.39435,-0.48335 0.5008,-0.58902 5.01508,-0.23304 7.13539,0.56267 2.4962,0.93678 4.06299,2.11547 3.57497,2.68945 -0.24995,0.29398 -0.11697,0.38288 0.29552,0.19758 1.45718,-0.65463 2.16867,1.01876 2.63451,6.19629 0.44968,4.99783 0.38973,5.32248 -1.31904,7.14323 -3.41158,3.63515 -12.09398,5.25762 -17.32921,3.23831 z m 18.36753,-5.08164 c 0,-0.10872 -0.56723,-0.52104 -1.26051,-0.91627 -1.14244,-0.65126 -1.16791,-0.63274 -0.27196,0.19769 0.94097,0.87215 1.53247,1.1495 1.53247,0.71858 z m -0.24009,-2.13539 c 0,-0.41929 -0.2754,-0.63862 -0.612,-0.4874 -0.3366,0.15121 -0.42552,0.49426 -0.19759,0.76233 0.58245,0.68504 0.80959,0.60791 0.80959,-0.27493 z m -3.72153,-10.23283 c -0.24485,-0.28797 -0.83121,-0.51997 -1.30303,-0.51557 -0.51545,0.005 -0.42661,0.2106 0.22258,0.51557 1.38378,0.65004 1.63313,0.65004 1.08045,0 z m -33.43164,17.37932 c -0.36702,-0.0883 -0.70054,-3.59261 -0.74115,-7.78731 -0.0649,-6.70598 0.0803,-7.71844 1.20298,-8.38641 0.70224,-0.41782 0.82958,-0.59161 0.28299,-0.38618 -0.66503,0.24993 -0.87354,0.13286 -0.63026,-0.35386 0.19995,-0.40004 0.7523,-0.66261 1.22743,-0.58348 0.47512,0.0791 0.66863,-0.0858 0.43001,-0.36642 -0.69284,-0.81487 2.1131,-1.60998 5.68164,-1.60998 3.78401,0 4.24287,0.63282 1.13695,1.56798 -1.18345,0.35633 -1.95467,0.87964 -1.71381,1.16292 0.24085,0.28328 -0.3305,0.22402 -1.26967,-0.13169 -0.93918,-0.3557 -1.4673,-0.45979 -1.17362,-0.2313 0.29368,0.22848 0.16646,0.73731 -0.28272,1.13073 -0.44918,0.39341 -0.60843,0.86668 -0.3539,1.0517 0.25454,0.18502 0.4628,0.0638 0.4628,-0.26932 0,-0.37933 0.49498,-0.29764 1.32435,0.21855 1.13858,0.70864 1.21876,1.11184 0.57155,2.87439 -1.02398,2.78863 0.29457,7.15322 3.03599,10.04954 l 2.12977,2.25012 -1.91017,-0.0356 c -1.05059,-0.0196 -2.31533,-0.21906 -2.81053,-0.44328 -0.49521,-0.22422 -0.90037,-0.20975 -0.90037,0.0321 0,0.41346 -4.24406,0.59717 -5.70026,0.24675 z m 5.50518,-12.98344 c -0.23935,-0.17398 -0.86061,-0.19258 -1.38057,-0.0413 -0.5746,0.16714 -0.40392,0.2912 0.43518,0.31633 0.75931,0.0227 1.18473,-0.10102 0.94539,-0.275 z m 32.96853,12.88223 c 0.24484,-0.28796 0.99327,-0.51997 1.66317,-0.51556 1.04967,0.007 1.06868,0.0782 0.13757,0.51556 -1.41061,0.66265 -2.36414,0.66265 -1.80074,0 z m 63.05139,-0.91626 c 0.014,-0.21598 0.47784,-0.98171 1.03068,-1.70163 l 1.00518,-1.30895 -0.0599,1.70163 c -0.0372,1.0566 -0.42788,1.70163 -1.03069,1.70163 -0.53396,0 -0.95934,-0.1767 -0.9453,-0.39268 z m 5.81749,-4.81612 c 0.11141,-3.27724 0.44178,-5.08988 0.89091,-4.88811 0.425,0.19093 0.52192,-0.0429 0.23953,-0.57776 -0.31963,-0.60548 -0.20219,-0.77621 0.36015,-0.52358 0.56235,0.25263 0.67979,0.0819 0.36015,-0.52358 -0.28173,-0.53367 -0.1852,-0.76858 0.23774,-0.57857 0.39163,0.17593 0.71205,0.0415 0.71205,-0.29871 0,-0.43764 0.36873,-0.40839 1.26052,0.1 1.1315,0.64503 1.16342,0.62838 0.31191,-0.16268 -0.79049,-0.73437 -0.76528,-1.12709 0.15124,-2.35611 0.60491,-0.81116 1.11281,-1.17204 1.12867,-0.80195 0.022,0.51244 0.3759,0.53788 1.48432,0.10669 0.80051,-0.31142 1.77291,-0.42361 2.16089,-0.24932 0.38797,0.1743 0.7054,0.0674 0.7054,-0.23757 0,-0.71864 3.37295,-0.72328 3.98325,-0.005 0.30305,0.35643 0.76082,0.37162 1.30506,0.0433 0.98728,-0.59559 2.55244,0.16704 3.89546,1.89806 1.14635,1.47753 1.26912,13.74061 0.13757,13.74061 -0.41955,0 -0.58305,-0.21142 -0.36336,-0.46981 0.56878,-0.66897 -0.37522,-3.75332 -1.05525,-3.44782 -0.31098,0.13971 -0.39578,-0.21753 -0.18844,-0.79387 0.2192,-0.6093 0.0225,-1.04788 -0.46983,-1.04788 -0.46575,0 -0.6416,-0.24136 -0.39079,-0.53635 0.57789,-0.67968 -0.31332,-3.74 -0.99938,-3.43179 -0.28113,0.1263 -0.41615,-0.63738 -0.30005,-1.69706 0.16667,-1.52128 0.0699,-1.70635 -0.46006,-0.87954 -0.36913,0.57594 -0.69393,0.77669 -0.72177,0.44611 -0.0325,-0.38559 -1.148,-0.53012 -3.11189,-0.40318 -6.00427,0.38808 -5.50847,-0.19513 -5.35791,6.3025 0.0747,3.22258 -0.10733,5.74991 -0.40445,5.61627 -0.29712,-0.13363 -0.54022,0.007 -0.54022,0.31151 0,0.30497 -1.15617,0.55448 -2.56925,0.55448 h -2.56924 l 0.17707,-5.2088 z m 1.94112,-3.96769 c -0.22177,-0.1612 -0.62453,0.12939 -0.89502,0.64575 -0.39089,0.7462 -0.30816,0.80634 0.40322,0.2931 0.49226,-0.35517 0.71357,-0.77764 0.4918,-0.93885 z m 11.71786,-5.10413 c -0.0891,-0.62604 -1.07705,-0.5048 -1.38656,0.17016 -0.15847,0.34557 0.10084,0.53405 0.57623,0.41887 0.4754,-0.11519 0.84005,-0.38025 0.81033,-0.58903 z m 81.25409,13.91186 c -0.0469,-0.22913 -0.0469,-0.59331 0,-0.80929 0.0469,-0.21597 -0.1578,-0.36478 -0.45493,-0.33068 -1.41564,0.16248 -1.8734,-0.1274 -0.90439,-0.5727 0.7867,-0.36152 1.07752,-1.47935 1.08045,-4.1531 0.005,-4.33945 0.97211,-4.2325 1.22355,0.13528 0.0962,1.67036 0.42462,3.14922 0.72992,3.28638 0.3053,0.13715 0.3896,-0.0641 0.18734,-0.44724 -0.27721,-0.52509 0.32588,-0.64851 2.44949,-0.5013 1.54948,0.1074 3.45668,-0.0535 4.23822,-0.35751 1.15219,-0.44823 1.72659,-0.31635 3.03645,0.69715 1.80656,1.39781 1.36593,2.58861 -0.77508,2.09467 -0.94284,-0.21752 -1.33355,-0.0966 -1.1999,0.37138 0.14574,0.51036 -1.08801,0.73489 -4.66383,0.84875 -2.6741,0.0851 -4.90038,-0.0327 -4.94729,-0.26179 z m 3.3283,-0.80474 c 0.32419,0.21347 0.34655,0.0822 0.0497,-0.29176 -0.41585,-0.52383 -0.77305,-0.53916 -1.55607,-0.0668 -0.55897,0.33722 -1.01632,0.73092 -1.01632,0.87491 0,0.14398 0.43499,-5.3e-4 0.96665,-0.32136 0.53165,-0.32073 1.23188,-0.40848 1.55607,-0.195 z m 7.56143,-1.76254 c 0,-0.43333 -1.39862,-0.67838 -1.71928,-0.30124 -0.20803,0.24468 0.0937,0.44486 0.67052,0.44486 0.57681,0 1.04876,-0.0646 1.04876,-0.14362 z m 5.04207,-3.08512 c 0,-3.88875 0.27015,-6.02116 0.76281,-6.02116 0.41954,0 0.59872,-0.19298 0.39818,-0.42884 -0.20053,-0.23586 0.63223,-0.32249 1.85059,-0.19251 1.41971,0.15147 2.34699,0.60265 2.58219,1.25642 0.24593,0.68361 0.80533,0.93676 1.69589,0.76748 1.09196,-0.20757 1.20452,-0.0837 0.6313,0.69488 -0.63699,0.86517 -0.51462,0.89728 1.40842,0.36966 1.1583,-0.31781 1.95993,-0.74965 1.78138,-0.95965 -0.46504,-0.54695 1.23953,-3.09269 1.87856,-2.80561 0.29351,0.13186 0.48921,-0.17004 0.4349,-0.67088 -0.079,-0.72888 0.59205,-0.94272 3.3624,-1.07139 l 3.46115,-0.16077 -1.09404,1.53784 c -0.60172,0.84581 -1.94782,2.2754 -2.99134,3.17686 l -1.89732,1.63902 1.49786,0.91075 c 0.82383,0.50091 2.31133,2.50112 3.30556,4.4449 l 1.8077,3.53416 h -3.14775 c -2.83783,0 -3.22728,-0.15465 -3.95544,-1.57073 -0.44423,-0.86391 -1.17747,-2.28868 -1.62943,-3.16617 -0.84372,-1.63807 -3.87883,-3.15514 -5.48084,-2.73952 -0.60254,0.15631 -0.90037,1.43149 -0.90037,3.855 v 3.62142 h -2.88118 -2.88118 z m 10.08414,-2.06341 c 0,-0.12699 -0.32414,-0.37651 -0.7203,-0.55448 -0.39616,-0.17798 -0.72029,-0.0741 -0.72029,0.23088 0,0.30497 0.32413,0.55449 0.72029,0.55449 0.39616,0 0.7203,-0.1039 0.7203,-0.23089 z m -4.74366,-1.85595 c -0.46648,-0.33908 -0.71001,-0.16206 -0.71001,0.5161 0,0.67816 0.24353,0.85518 0.71001,0.5161 0.46647,-0.33908 0.46647,-0.69312 0,-1.0322 z m -1.3598,-2.00068 c -0.22177,-0.1612 -0.80297,-3.3e-4 -1.29158,0.35749 -0.70608,0.5171 -0.62334,0.57724 0.40322,0.2931 0.71037,-0.19662 1.11014,-0.48939 0.88836,-0.65059 z m 12.58612,0.62789 c 0,-0.43333 -1.39862,-0.67838 -1.71928,-0.30123 -0.20803,0.24467 0.0937,0.44486 0.67052,0.44486 0.57681,0 1.04876,-0.0646 1.04876,-0.14363 z m -100.48124,9.91432 c -2.93018,-1.13022 -2.86445,-1.02173 -1.52156,-2.51151 1.33106,-1.47665 2.602,-1.74038 2.602,-0.53992 0,0.43195 0.2431,0.78537 0.54023,0.78537 0.29712,0 0.54022,0.70683 0.54022,1.57074 0,0.8639 0,1.5613 0,1.54977 0,-0.0115 -0.9724,-0.39603 -2.16089,-0.85445 z m 0.13189,-2.88781 c -0.22993,-0.41768 -0.40061,-0.29361 -0.43517,0.31633 -0.0313,0.55194 0.13897,0.86118 0.37831,0.6872 0.23935,-0.17398 0.26494,-0.62557 0.0568,-1.00353 z m -112.67808,-0.94325 c -1.28752,-0.57063 -2.36576,-1.21768 -2.39607,-1.43788 -0.0585,-0.42492 -0.34864,-1.46427 -0.76953,-2.75649 -0.2048,-0.62881 0.40692,-0.75207 3.06858,-0.6183 2.88445,0.14496 3.37739,0.0197 3.72489,-0.94619 0.306,-0.85059 0.18727,-0.98462 -0.50323,-0.56807 -0.64127,0.38686 -0.91367,0.35753 -0.93798,-0.10097 -0.0189,-0.35538 -0.26961,-1.05848 -0.55726,-1.56242 -0.42294,-0.74095 -0.14896,-0.91627 1.43186,-0.91627 1.5166,0 1.85315,0.19268 1.50117,0.85943 -0.36222,0.68613 -0.25179,0.73762 0.54766,0.25533 0.76518,-0.46161 1.19232,-0.43684 1.81098,0.10502 0.44529,0.39001 0.56932,0.9019 0.27564,1.13755 -0.29368,0.23565 -0.1282,0.2587 0.36774,0.0512 1.17791,-0.49279 2.54199,2.05576 1.90058,3.55087 -0.65374,1.52387 -3.64702,3.63271 -4.5686,3.21869 -0.4151,-0.18648 -0.75473,-0.0895 -0.75473,0.21542 0,0.8445 -1.54823,0.66247 -4.1417,-0.48694 z m 1.26052,-3.3781 c 0,-0.12699 -0.32413,-0.37651 -0.72029,-0.55448 -0.39617,-0.17798 -0.7203,-0.0741 -0.7203,0.23089 0,0.30496 0.32413,0.55448 0.7203,0.55448 0.39616,0 0.72029,-0.1039 0.72029,-0.23089 z m 180.0739,-3.21295 c 0,-0.58242 0.40517,-1.37625 0.90037,-1.76405 0.72451,-0.56739 0.71372,-0.62809 -0.0553,-0.31079 -0.71622,0.29554 -0.89666,0.0197 -0.72029,-1.10125 0.20145,-1.28034 0.59114,-1.52019 2.70796,-1.66676 3.1835,-0.22043 6.53479,0.26974 8.2311,1.20389 1.29765,0.71462 1.2895,0.78935 -0.25824,2.36933 -1.46627,1.49682 -1.7004,1.56418 -2.83721,0.81635 -1.8632,-1.22567 -5.50909,-1.04007 -6.84716,0.34856 -1.07796,1.1187 -1.12129,1.12274 -1.12129,0.10472 z M 172.83692,138.0746 c 0.0346,-0.60995 0.20524,-0.73401 0.43517,-0.31633 0.20807,0.37795 0.18249,0.82954 -0.0568,1.00352 -0.23936,0.17398 -0.40959,-0.13526 -0.37832,-0.68719 z M 150.359,134.32228 c -0.89595,-0.83043 -0.87047,-0.84895 0.27196,-0.19769 0.69328,0.39523 1.26052,0.80755 1.26052,0.91627 0,0.43092 -0.5915,0.15357 -1.53248,-0.71858 z m 17.75677,-1.61482 c -3.02851,-1.17948 -4.49924,-1.39875 -9.49153,-1.41505 -3.24923,-0.0106 -5.77937,0.13165 -5.62252,0.31612 0.15684,0.18448 -0.49038,0.59227 -1.43828,0.90621 -1.3074,0.43301 -1.90904,0.40826 -2.4922,-0.10251 -0.42281,-0.37031 -0.52845,-0.86611 -0.23477,-1.10175 0.29368,-0.23566 0.1512,-0.26903 -0.31663,-0.0742 -1.66339,0.6928 -1.79451,-0.80826 -0.17975,-2.05768 1.57842,-1.22129 2.01114,-1.27019 11.24004,-1.27019 8.63805,0 9.74258,0.10477 11.03903,1.04716 0.96039,0.6981 1.44059,1.74526 1.44059,3.14147 0,1.15188 -0.081,2.07449 -0.18007,2.05025 -0.099,-0.0242 -1.7928,-0.67217 -3.76391,-1.43985 z m 188.14758,-0.15179 c 0.4886,-0.35782 1.06981,-0.51869 1.29158,-0.35749 0.22177,0.16121 -0.17799,0.45397 -0.88836,0.65059 -1.02657,0.28414 -1.1093,0.224 -0.40322,-0.2931 z m -238.1689,-25.37225 c 0.0346,-0.60994 0.20524,-0.73401 0.43518,-0.31633 0.20807,0.37795 0.18248,0.82954 -0.0569,1.00353 -0.23935,0.17398 -0.40959,-0.13526 -0.37831,-0.6872 z m 123.9477,-2.31248 c 0,-0.71992 0.1635,-1.01443 0.36331,-0.65447 0.19982,0.35996 0.19982,0.94899 0,1.30895 -0.19981,0.35996 -0.36331,0.0654 -0.36331,-0.65448 z m 43.10401,-4.38632 c 0,-0.10872 0.56723,-0.521035 1.26052,-0.916259 1.14243,-0.651264 1.16791,-0.632745 0.27195,0.197683 -0.94097,0.872156 -1.53247,1.149506 -1.53247,0.718576 z m -65.43317,-1.37305 c 0,-0.719922 0.16349,-1.014435 0.36331,-0.654474 0.19982,0.35996 0.19982,0.948987 0,1.308948 -0.19982,0.359956 -0.36331,0.06545 -0.36331,-0.654474 z m 96.40588,-16.95222 c 0,-0.108721 0.56724,-0.52104 1.26052,-0.916264 1.14243,-0.651265 1.16791,-0.632746 0.27196,0.197683 -0.94098,0.872152 -1.53248,1.149507 -1.53248,0.718581 z"
         id="path3190" />
      <path
         style="fill:#606060;fill-opacity:1;stroke-width:0.614111"
         d="m 218.38187,276.34316 c 0.004,-1.72781 0.13851,-2.37152 0.29882,-1.43047 0.16031,0.94106 0.157,2.35472 -0.007,3.14148 -0.16435,0.78676 -0.29551,0.0168 -0.29147,-1.71101 z m 50.60395,0.41527 c -0.39089,-0.74621 -0.30816,-0.80635 0.40322,-0.2931 0.49226,0.35516 0.71358,0.77764 0.4918,0.93884 -0.22177,0.16121 -0.62453,-0.12938 -0.89502,-0.64574 z m 63.69985,0.3701 c 0,-0.28797 0.34327,-0.52358 0.76281,-0.52358 0.41954,0 0.56248,0.23561 0.31764,0.52358 -0.24485,0.28797 -0.58811,0.52358 -0.76281,0.52358 -0.1747,0 -0.31764,-0.23561 -0.31764,-0.52358 z m -116.28143,-1.41726 c -0.39089,-0.74621 -0.30816,-0.80635 0.40322,-0.2931 0.49227,0.35516 0.71358,0.77764 0.49181,0.93884 -0.22178,0.16121 -0.62454,-0.12938 -0.89503,-0.64574 z m -42.53865,-1.71822 c -0.25235,-0.2968 0.0368,-0.38457 0.67779,-0.20577 1.24785,0.34807 1.47616,0.72335 0.44007,0.72335 -0.37278,0 -0.87582,-0.23291 -1.11786,-0.51758 z M 306.8119,222.37086 c 0.0346,-0.60994 0.20524,-0.734 0.43517,-0.31633 0.20807,0.37796 0.18249,0.82955 -0.0568,1.00353 -0.23935,0.17398 -0.40959,-0.13526 -0.37831,-0.6872 z m -15.06935,-5.97753 c 0,-0.71992 0.16349,-1.01443 0.36331,-0.65447 0.19982,0.35996 0.19982,0.94898 0,1.30894 -0.19982,0.35997 -0.36331,0.0654 -0.36331,-0.65447 z m -69.20524,-40.09745 c 0.0346,-0.60994 0.20524,-0.734 0.43518,-0.31633 0.20807,0.37796 0.18248,0.82955 -0.0568,1.00353 -0.23935,0.17398 -0.40958,-0.13526 -0.37831,-0.6872 z m -67.24444,-4.95676 c 0.88036,-0.67341 1.73998,-1.11967 1.91027,-0.99168 0.17028,0.12799 -0.55001,0.67896 -1.60066,1.22439 l -1.91026,0.99168 z m -18.66266,-16.56223 c 0.51997,-0.15125 1.14122,-0.13265 1.38057,0.0413 0.23935,0.17398 -0.18608,0.29773 -0.94539,0.275 -0.8391,-0.0251 -1.00978,-0.14919 -0.43518,-0.31633 z m 3.73654,-0.19682 c 0,-0.30496 0.32413,-0.40886 0.72029,-0.23089 0.39616,0.17798 0.7203,0.4275 0.7203,0.55449 0,0.12698 -0.32414,0.23088 -0.7203,0.23088 -0.39616,0 -0.72029,-0.24951 -0.72029,-0.55448 z m 199.70195,-0.33001 c 0.69329,-0.1317 1.82775,-0.1317 2.52104,0 0.69328,0.13169 0.12605,0.23944 -1.26052,0.23944 -1.38657,0 -1.9538,-0.10775 -1.26052,-0.23944 z m -190.76704,-1.29072 c -0.32513,-0.3824 -0.19685,-0.46202 0.34919,-0.21672 0.47473,0.21327 1.41618,0.073 2.0921,-0.31178 1.10694,-0.63009 1.13081,-0.60857 0.24041,0.21671 -1.14941,1.06534 -1.96079,1.15968 -2.6817,0.31179 z m 121.2772,-0.57421 c 0.27876,-0.77486 0.50039,-0.8446 0.97058,-0.30542 0.86222,0.98872 0.77641,1.30958 -0.35022,1.30958 -0.61298,0 -0.84595,-0.3771 -0.62036,-1.00416 z m 64.70204,0.74237 c -0.20403,-0.23998 0.0867,-0.43632 0.6461,-0.43632 0.55939,0 0.85014,0.19634 0.6461,0.43632 -0.20403,0.23997 -0.49478,0.43632 -0.6461,0.43632 -0.15132,0 -0.44207,-0.19635 -0.6461,-0.43632 z m 2.44684,0.30275 c 0,-0.14399 0.45735,-0.53769 1.01632,-0.87491 0.78302,-0.47237 1.14022,-0.45704 1.55607,0.0668 0.29687,0.37394 0.27451,0.50523 -0.0497,0.29176 -0.32418,-0.21348 -1.02442,-0.12573 -1.55607,0.195 -0.53163,0.32073 -0.96662,0.46534 -0.96662,0.32136 z m -77.7319,-2.78975 c -0.46485,-1.34192 -0.71013,-2.53802 -0.54506,-2.65801 0.16507,-0.11999 0.68045,0.87977 1.14531,2.22169 0.46485,1.34192 0.71012,2.53802 0.54506,2.65801 -0.16507,0.11999 -0.68045,-0.87977 -1.14531,-2.22169 z m -107.81265,0.17452 -1.37216,-1.17805 1.62067,0.99741 c 1.52302,0.93733 1.94857,1.3587 1.37215,1.3587 -0.13668,0 -0.86598,-0.53013 -1.62066,-1.17806 z m 183.50609,0.1309 c -0.0117,-0.71992 0.25739,-1.78017 0.59787,-2.35611 l 0.61904,-1.04716 -0.0212,1.04716 c -0.0117,0.57594 -0.28069,1.63619 -0.59787,2.35611 l -0.5767,1.30895 -0.0212,-1.30895 z m -98.39647,-0.15348 c 0.2705,-0.51636 0.67326,-0.80695 0.89503,-0.64574 0.22177,0.1612 4.6e-4,0.58368 -0.49181,0.93884 -0.71137,0.51325 -0.79411,0.45311 -0.40322,-0.2931 z m 100.75629,0.10786 c -0.26618,-0.31306 -0.15983,-0.80481 0.23634,-1.09278 0.4802,-0.34905 0.90454,-0.30688 1.27303,0.12652 0.38162,0.44883 0.25739,0.51741 -0.40125,0.22152 -0.69269,-0.31119 -0.82801,-0.18994 -0.49405,0.44268 0.51705,0.97942 0.12558,1.17199 -0.61407,0.30206 z m 8.0435,-0.0502 c 0.20803,-0.24467 0.67996,-0.3093 1.04876,-0.14362 0.94242,0.42337 0.8363,0.58848 -0.37824,0.58848 -0.57682,0 -0.87855,-0.20019 -0.67052,-0.44486 z m -178.684,-0.39162 c -0.22793,-0.26807 -0.13901,-0.61112 0.19758,-0.76234 0.3366,-0.15121 0.612,0.0681 0.612,0.4874 0,0.88285 -0.22714,0.95998 -0.80958,0.27494 z M 347.72,150.02966 c -0.89596,-0.83043 -0.87048,-0.84895 0.27195,-0.19769 0.69329,0.39523 1.26052,0.80755 1.26052,0.91627 0,0.43092 -0.5915,0.15357 -1.53247,-0.71858 z m -176.80913,-0.78537 -1.37215,-1.17806 1.62066,0.99742 c 1.52303,0.93732 1.94858,1.35869 1.37216,1.35869 -0.13668,0 -0.86598,-0.53012 -1.62067,-1.17805 z m 98.90057,0.13141 c -0.2071,-0.57565 -0.1516,-1.14769 0.12333,-1.2712 0.27493,-0.12351 0.565,0.34747 0.64461,1.04664 0.17524,1.53916 -0.25025,1.66358 -0.76794,0.22456 z m -97.03139,-1.30947 c 0,-0.43195 0.12739,-0.78537 0.28308,-0.78537 0.1557,0 0.46966,0.35342 0.69769,0.78537 0.22804,0.43196 0.10064,0.78537 -0.28308,0.78537 -0.38373,0 -0.69769,-0.35341 -0.69769,-0.78537 z m -1.76998,-0.22561 c -0.22793,-0.26807 -0.13901,-0.61112 0.19759,-0.76233 0.3366,-0.15122 0.612,0.0681 0.612,0.4874 0,0.88284 -0.22714,0.95997 -0.80959,0.27493 z m -30.58646,-1.38875 c 0.0346,-0.60995 0.20524,-0.73401 0.43518,-0.31634 0.20807,0.37796 0.18248,0.82955 -0.0569,1.00353 -0.23935,0.17398 -0.40959,-0.13526 -0.37831,-0.68719 z m 117.86291,-0.21816 c -0.2072,-0.57594 -0.0829,-1.04716 0.27614,-1.04716 0.35907,0 0.65286,0.47122 0.65286,1.04716 0,0.57593 -0.12426,1.04715 -0.27614,1.04715 -0.15187,0 -0.44566,-0.47122 -0.65286,-1.04715 z m -85.77763,-0.28204 c -0.24703,-0.46792 -0.40664,-1.95065 -0.35469,-3.29495 0.0939,-2.42876 0.0979,-2.42437 0.64951,0.6973 0.57413,3.24929 0.48124,4.06771 -0.29482,2.59765 z m 163.83513,-0.0234 c 0.0346,-0.60994 0.20524,-0.73401 0.43517,-0.31633 0.20807,0.37796 0.18249,0.82955 -0.0568,1.00353 -0.23935,0.17398 -0.40959,-0.13526 -0.37831,-0.6872 z m -183.73225,-0.47993 c 0,-0.43196 0.12739,-0.78537 0.28309,-0.78537 0.15569,0 0.46965,0.35341 0.69769,0.78537 0.22803,0.43195 0.10064,0.78537 -0.28309,0.78537 -0.38373,0 -0.69769,-0.35342 -0.69769,-0.78537 z m 90.44341,0.10831 c 0.27049,-0.51636 0.67325,-0.80695 0.89502,-0.64575 0.22177,0.16121 4.6e-4,0.58368 -0.4918,0.93885 -0.71138,0.51324 -0.79411,0.4531 -0.40322,-0.2931 z m 118.44232,0.12257 c 0,-0.30496 0.32413,-0.40886 0.72029,-0.23088 0.39616,0.17797 0.7203,0.42749 0.7203,0.55448 0,0.12699 -0.32414,0.23089 -0.7203,0.23089 -0.39616,0 -0.72029,-0.24952 -0.72029,-0.55449 z m -205.28425,-0.52357 c 0,-0.30497 0.32413,-0.40887 0.7203,-0.23089 0.39616,0.17797 0.72029,0.42749 0.72029,0.55448 0,0.12699 -0.32413,0.23089 -0.72029,0.23089 -0.39617,0 -0.7203,-0.24952 -0.7203,-0.55448 z m 201.27117,-0.49268 c 0,-0.67816 0.24353,-0.85518 0.71001,-0.5161 0.46647,0.33908 0.46647,0.69312 0,1.0322 -0.46648,0.33908 -0.71001,0.16206 -0.71001,-0.5161 z m -115.55599,0.32305 c 0,-0.5619 2.14315,-3.46453 2.55803,-3.46453 0.19808,0 -0.17561,0.76574 -0.8304,1.70163 -1.33704,1.91102 -1.72763,2.30958 -1.72763,1.7629 z m 118.60078,-0.6085 c 0.21942,-0.41563 0.68911,-0.62534 1.04376,-0.46601 0.89324,0.40128 0.81102,0.59306 -0.39894,0.93056 -0.69624,0.19421 -0.91093,0.0395 -0.64482,-0.46455 z m -220.04873,-0.76171 c 0,-0.71992 0.16349,-1.01444 0.3633,-0.65447 0.19982,0.35996 0.19982,0.94898 0,1.30894 -0.19981,0.35996 -0.3633,0.0654 -0.3633,-0.65447 z m 4.20804,0.52358 c 0,-0.28797 0.32413,-0.52358 0.7203,-0.52358 0.39616,0 0.72029,0.23561 0.72029,0.52358 0,0.28797 -0.32413,0.52358 -0.72029,0.52358 -0.39617,0 -0.7203,-0.23561 -0.7203,-0.52358 z m 112.77257,-0.3701 c -0.39089,-0.74621 -0.30816,-0.80635 0.40322,-0.2931 0.49227,0.35516 0.71358,0.77764 0.4918,0.93884 -0.22177,0.16121 -0.62453,-0.12938 -0.89502,-0.64574 z m 79.71849,-1.72422 c -0.0321,-1.58383 0.10576,-2.58371 0.3064,-2.22195 0.20064,0.36176 0.74229,0.49324 1.20365,0.29218 0.63445,-0.27648 0.6338,-0.18108 -0.003,0.39153 -0.46283,0.41639 -0.97819,1.58077 -1.14524,2.5875 -0.20995,1.26524 -0.32176,0.94126 -0.36214,-1.04926 z m 31.52087,1.83253 c 0.83019,-0.72713 0.49796,-1.01773 -0.95391,-0.8344 -0.32656,0.0412 -0.37874,-0.17792 -0.11594,-0.487 0.33462,-0.39357 0.78503,-0.37664 1.50301,0.0565 0.77693,0.46871 0.82726,0.79184 0.20783,1.33438 -0.44956,0.39374 -0.97945,0.7159 -1.17753,0.7159 -0.19808,0 0.0434,-0.35342 0.53654,-0.78537 z m -215.84724,-0.56519 c -7.2e-4,-0.31092 0.75956,-0.45946 1.68999,-0.33017 2.4579,0.34154 2.69077,1.01462 0.32877,0.9503 -1.10958,-0.0302 -2.01803,-0.30928 -2.01876,-0.62013 z m 5.44293,0.34952 c 0.82146,-0.37812 0.69649,-0.77843 -0.69215,-2.21719 -1.28835,-1.33486 -1.37262,-1.5675 -0.35153,-0.97041 0.7387,0.43196 1.42833,0.66757 1.5325,0.52358 0.10419,-0.14398 0.45953,-0.0473 0.78967,0.21484 0.35439,0.2814 0.19318,0.30517 -0.39357,0.058 -0.68377,-0.28803 -0.88039,-0.19171 -0.63026,0.30873 0.19996,0.40005 0.69497,0.67651 1.10002,0.61437 0.40505,-0.0622 0.56983,0.35017 0.36617,0.91626 -0.20365,0.56609 -0.89971,1.02565 -1.54679,1.02124 -0.95752,-0.007 -0.98991,-0.0939 -0.17406,-0.46944 z m 204.64195,-0.27701 c 0,-0.41496 0.25467,-0.86888 0.56594,-1.00872 0.31128,-0.13983 0.56595,0.19968 0.56595,0.75447 0,0.5548 -0.25467,1.00872 -0.56595,1.00872 -0.31127,0 -0.56594,-0.33951 -0.56594,-0.75447 z m -217.41554,-1.33985 c 0,-0.71992 0.16348,-1.01443 0.3633,-0.65447 0.19982,0.35996 0.19982,0.94898 0,1.30895 -0.19982,0.35996 -0.3633,0.0654 -0.3633,-0.65448 z m 210.0205,0.45861 c 0.48861,-0.35782 1.06981,-0.51869 1.29158,-0.35749 0.22178,0.1612 -0.17799,0.45397 -0.88836,0.65059 -1.02656,0.28414 -1.1093,0.224 -0.40322,-0.2931 z m -191.77295,-0.3668 c 0.19465,-0.14149 -0.0429,-0.63235 -0.5278,-1.09079 -0.54024,-0.51073 -0.25886,-0.44727 0.72654,0.16387 1.90786,1.18322 1.90828,1.18417 0.52781,1.18417 -0.59424,0 -0.92119,-0.11577 -0.72655,-0.25725 z m 93.39826,-0.61539 c 0,-0.71992 0.16349,-1.01443 0.36331,-0.65447 0.19982,0.35996 0.19982,0.94899 0,1.30895 -0.19982,0.35996 -0.36331,0.0654 -0.36331,-0.65448 z m -118.37726,0.16592 c 0.51996,-0.15125 1.14122,-0.13265 1.38057,0.0413 0.23934,0.17398 -0.18608,0.29773 -0.94539,0.27499 -0.8391,-0.0251 -1.00978,-0.14918 -0.43518,-0.31632 z m 106.64692,-0.5586 c -0.89595,-0.83043 -0.87047,-0.84895 0.27196,-0.19769 0.69328,0.39523 1.26052,0.80755 1.26052,0.91627 0,0.43093 -0.5915,0.15357 -1.53248,-0.71858 z m 107.41593,0.71049 c 0,-0.11318 0.50303,-0.34609 1.11785,-0.51758 0.64101,-0.1788 0.93014,-0.091 0.67779,0.20577 -0.423,0.49751 -1.79564,0.73586 -1.79564,0.31181 z m -191.91247,-0.99486 c 0.27049,-0.51637 0.67325,-0.80695 0.89502,-0.64575 0.22178,0.1612 4.6e-4,0.58368 -0.4918,0.93885 -0.71138,0.51324 -0.79411,0.4531 -0.40322,-0.2931 z m -20.57473,-0.89369 c -0.6492,-0.30496 -0.73804,-0.51074 -0.22259,-0.51556 0.47183,-0.004 1.05819,0.2276 1.30303,0.51556 0.55269,0.65004 0.30333,0.65004 -1.08044,0 z m 113.91475,0.0262 c 0.15846,-0.34556 0.52311,-0.61062 0.81033,-0.58902 0.86126,0.0648 0.69446,0.7829 -0.2341,1.00789 -0.47539,0.11518 -0.7347,-0.0733 -0.57623,-0.41887 z m 6.70514,-0.061 c -0.26113,-0.30713 -0.3203,-0.6707 -0.13149,-0.80795 0.1888,-0.13725 0.53522,0.11404 0.76982,0.55841 0.48705,0.92261 0.0719,1.08489 -0.63833,0.24954 z m -122.78078,-0.37058 c 0,-0.31897 0.32942,-0.72794 0.73204,-0.90881 0.40263,-0.18088 0.51462,-0.5846 0.24886,-0.89717 -0.29535,-0.34737 -0.14632,-0.41696 0.38338,-0.179 0.67052,0.30123 0.66033,0.58604 -0.045,1.25895 -0.50138,0.47831 -1.00332,0.96783 -1.11542,1.08781 -0.1121,0.11999 -0.20382,-0.0428 -0.20382,-0.36178 z m 107.34611,0.14362 c 0,-0.28796 0.3142,-0.87699 0.69823,-1.30894 0.38403,-0.43196 0.69823,-0.54976 0.69823,-0.26179 0,0.28797 -0.3142,0.87699 -0.69823,1.30894 -0.38403,0.43196 -0.69823,0.54976 -0.69823,0.26179 z M 165.968,138.93977 c -0.22793,-0.26807 -0.13901,-0.61112 0.19759,-0.76233 0.3366,-0.15122 0.612,0.0681 0.612,0.4874 0,0.88284 -0.22714,0.95998 -0.80959,0.27493 z m -32.08391,-0.24195 c 0,-0.11317 0.50303,-0.34608 1.11785,-0.51758 0.64101,-0.1788 0.93013,-0.091 0.67779,0.20577 -0.423,0.49751 -1.79564,0.73587 -1.79564,0.31181 z m 202.74598,-0.88084 c -0.26095,-0.59764 -0.28279,-1.22593 -0.0485,-1.39621 0.23425,-0.17028 0.42592,0.097 0.42592,0.59393 0,0.49695 0.32042,0.75959 0.71205,0.58365 0.4083,-0.18343 0.52905,0.0268 0.28308,0.49268 -0.56674,1.07354 -0.80487,1.02599 -1.37251,-0.27405 z m -167.2114,-0.30128 c 0,-0.51547 0.24271,-0.54337 0.9604,-0.11042 0.52821,0.31865 0.96039,0.62906 0.96039,0.68979 0,0.0607 -0.43218,0.11042 -0.96039,0.11042 -0.52823,0 -0.9604,-0.31041 -0.9604,-0.68979 z m 81.51345,0.34074 c -0.24484,-0.28797 -0.10191,-0.52358 0.31764,-0.52358 0.41954,0 0.7628,0.23561 0.7628,0.52358 0,0.28797 -0.14293,0.52358 -0.31763,0.52358 -0.1747,0 -0.51797,-0.23561 -0.76281,-0.52358 z m 4.59004,-0.39269 c -0.89595,-0.83043 -0.87048,-0.84894 0.27196,-0.19768 0.69328,0.39522 1.26051,0.80754 1.26051,0.91626 0,0.43093 -0.5915,0.15357 -1.53247,-0.71858 z m -114.43512,0.18692 c 0,-0.11318 0.50304,-0.34609 1.11786,-0.51759 0.64101,-0.1788 0.93013,-0.091 0.67778,0.20577 -0.423,0.49751 -1.79564,0.73587 -1.79564,0.31182 z m 25.93064,-0.31781 c -0.64919,-0.30497 -0.73803,-0.51075 -0.22258,-0.51557 0.47182,-0.004 1.05818,0.2276 1.30303,0.51557 0.55268,0.65004 0.30333,0.65004 -1.08045,0 z m -31.30209,-0.4874 c -0.22793,-0.26807 -0.13901,-0.61112 0.19758,-0.76234 0.3366,-0.15121 0.612,0.0681 0.612,0.4874 0,0.88284 -0.22714,0.95998 -0.80958,0.27494 z m 22.65855,-1.08334 c 0,-0.28797 0.34326,-0.52358 0.7628,-0.52358 0.41955,0 0.56248,0.23561 0.31764,0.52358 -0.24484,0.28797 -0.58811,0.52358 -0.76281,0.52358 -0.1747,0 -0.31763,-0.23561 -0.31763,-0.52358 z m 6.48266,0.31781 c 0,-0.11318 0.50303,-0.34609 1.11785,-0.51759 0.64101,-0.17879 0.93013,-0.091 0.67779,0.20577 -0.423,0.49752 -1.79564,0.73587 -1.79564,0.31182 z m 189.79789,-3.45929 -2.16089,-0.39968 1.9383,-0.0619 c 1.06607,-0.0341 2.13863,0.17367 2.38347,0.46163 0.24485,0.28797 0.34501,0.49571 0.22259,0.46164 -0.12242,-0.0341 -1.19498,-0.24181 -2.38347,-0.46164 z m -207.37094,-0.95989 c -0.20404,-0.23998 0.0867,-0.43632 0.6461,-0.43632 0.55939,0 0.85014,0.19634 0.6461,0.43632 -0.20403,0.23997 -0.49478,0.43631 -0.6461,0.43631 -0.15132,0 -0.44207,-0.19634 -0.6461,-0.43631 z m 0.6461,-2.70516 c 0.71705,-0.57594 1.46579,-1.04716 1.66387,-1.04716 0.19808,0 -0.22653,0.47122 -0.94357,1.04716 -0.71705,0.57594 -1.46579,1.04716 -1.66387,1.04716 -0.19808,0 0.22652,-0.47122 0.94357,-1.04716 z m 7.38303,-1.43482 c 2.47602,-0.10224 6.52768,-0.10224 9.0037,0 2.47601,0.10224 0.45018,0.18589 -4.50185,0.18589 -4.95203,0 -6.97787,-0.0837 -4.50185,-0.18589 z M 321.16094,84.253667 c 0,-0.108721 0.56723,-0.52104 1.26052,-0.916264 1.14243,-0.651264 1.16791,-0.632745 0.27195,0.197683 -0.94097,0.872152 -1.53247,1.149508 -1.53247,0.718581 z m 12.15315,-7.525112 c -0.89596,-0.830428 -0.87048,-0.848947 0.27195,-0.197683 1.19983,0.683989 1.5814,1.113947 0.98856,1.113947 -0.14957,0 -0.7168,-0.412319 -1.26051,-0.916264 z m -41.68527,-5.56437 c 0,-0.108722 0.56724,-0.52104 1.26052,-0.916264 1.14243,-0.651265 1.16791,-0.632746 0.27195,0.197683 -0.94097,0.872152 -1.53247,1.149507 -1.53247,0.718581 z m -42.44057,-6.390689 c 0.0346,-0.609943 0.20524,-0.734005 0.43517,-0.316331 0.20808,0.377957 0.18249,0.829544 -0.0568,1.003529 -0.23935,0.17398 -0.40959,-0.135261 -0.37831,-0.687198 z m -4.47052,-8.464533 c -0.89596,-0.830426 -0.87048,-0.848945 0.27195,-0.19768 1.19983,0.683988 1.5814,1.113944 0.98856,1.113944 -0.14956,0 -0.7168,-0.412319 -1.26051,-0.916264 z m 2.11771,-20.908152 c 0.51996,-0.151247 1.14121,-0.132645 1.38057,0.04134 0.23935,0.173981 -0.18608,0.297729 -0.94539,0.274994 -0.83911,-0.02512 -1.00978,-0.149189 -0.43518,-0.316329 z"
         id="path3188" />
      <path
         style="fill:#494949;fill-opacity:1;stroke-width:0.614111"
         d="m 233.39861,277.65211 c 0,-0.71992 0.16349,-1.01444 0.36331,-0.65448 0.19981,0.35996 0.19981,0.94899 0,1.30895 -0.19982,0.35996 -0.36331,0.0654 -0.36331,-0.65447 z m -22.03644,-0.89368 c -0.39089,-0.74621 -0.30816,-0.80635 0.40322,-0.2931 0.49227,0.35516 0.71358,0.77764 0.49181,0.93884 -0.22178,0.16121 -0.62454,-0.12938 -0.89503,-0.64574 z m 121.68365,-0.67706 c -0.24484,-0.28797 -0.10191,-0.52358 0.31764,-0.52358 0.41954,0 0.7628,0.23561 0.7628,0.52358 0,0.28797 -0.14293,0.52358 -0.31763,0.52358 -0.1747,0 -0.51797,-0.23561 -0.76281,-0.52358 z m -14.40591,-2.09432 c 0.24484,-0.28797 0.5881,-0.52358 0.76281,-0.52358 0.1747,0 0.31763,0.23561 0.31763,0.52358 0,0.28797 -0.34326,0.52358 -0.76281,0.52358 -0.41954,0 -0.56248,-0.23561 -0.31763,-0.52358 z m -12.01994,-37.00821 c 0.51996,-0.15125 1.14123,-0.13265 1.38057,0.0413 0.23935,0.17398 -0.18608,0.29773 -0.94538,0.27499 -0.83911,-0.0251 -1.00979,-0.14918 -0.43519,-0.31632 z M 158.20246,155.81141 c 0.89598,-0.12524 2.19252,-0.12049 2.88118,0.0106 0.68867,0.13105 -0.0444,0.23352 -1.62906,0.22771 -1.58465,-0.006 -2.1481,-0.11304 -1.25212,-0.23827 z m 13.85729,-0.87454 c 0,-0.10872 0.56724,-0.52104 1.26052,-0.91626 1.14243,-0.65127 1.16791,-0.63275 0.27196,0.19768 -0.94098,0.87215 -1.53248,1.14951 -1.53248,0.71858 z m 63.92624,-0.67265 c 0.4952,-0.14525 1.30553,-0.14525 1.80074,0 0.4952,0.14524 0.09,0.26409 -0.90037,0.26409 -0.99041,0 -1.39558,-0.11885 -0.90037,-0.26409 z m 6.84281,-0.0141 c 0.69328,-0.13169 1.82775,-0.13169 2.52103,0 0.69328,0.1317 0.12605,0.23945 -1.26052,0.23945 -1.38657,0 -1.9538,-0.10775 -1.26051,-0.23945 z m -84.26088,-1.57265 c 0.70082,-0.13275 1.67322,-0.12402 2.16088,0.0194 0.48767,0.14343 -0.0857,0.25204 -1.27422,0.24137 -1.18849,-0.0107 -1.58749,-0.12802 -0.88666,-0.26077 z m 103.79526,-5.39657 c 0,-3.02367 0.11905,-4.26062 0.26455,-2.74879 0.1455,1.51184 0.1455,3.98575 0,5.49759 -0.1455,1.51183 -0.26455,0.27487 -0.26455,-2.7488 z m 87.29575,4.34212 c -0.39089,-0.74621 -0.30816,-0.80635 0.40322,-0.2931 0.49226,0.35516 0.71357,0.77764 0.4918,0.93884 -0.22177,0.16121 -0.62453,-0.12938 -0.89502,-0.64574 z m -11.71535,-5.91285 c 0,-1.58383 0.13504,-2.23176 0.30007,-1.43985 0.16504,0.79192 0.16504,2.08778 0,2.87969 -0.16503,0.79191 -0.30007,0.14398 -0.30007,-1.43984 z m -193.14133,0 c 0,-0.71993 0.16349,-1.01444 0.36331,-0.65448 0.19982,0.35996 0.19982,0.94899 0,1.30895 -0.19982,0.35996 -0.36331,0.0654 -0.36331,-0.65447 z m 214.76821,-2.43883 c 0.26067,-0.18948 0.0716,-0.71961 -0.42018,-1.17805 -0.78983,-0.73633 -0.74802,-0.75029 0.35847,-0.11975 1.12685,0.64215 1.14235,1.64231 0.0254,1.64231 -0.24073,0 -0.22442,-0.15503 0.0362,-0.34451 z m -244.60614,-0.76762 c 0.4886,-0.35782 1.06981,-0.51869 1.29158,-0.35749 0.22177,0.1612 -0.17799,0.45397 -0.88836,0.65059 -1.02656,0.28414 -1.1093,0.224 -0.40322,-0.2931 z m 234.69461,-2.7064 c 0.27049,-0.51637 0.67325,-0.80695 0.89502,-0.64575 0.22177,0.16121 4.6e-4,0.58368 -0.4918,0.93885 -0.71138,0.51324 -0.79411,0.4531 -0.40322,-0.2931 z M 157.234,136.8795 c 0.3586,-0.42178 4.02132,-0.1917 4.02132,0.25261 0,0.11041 -0.99153,0.20075 -2.2034,0.20075 -1.21187,0 -2.02994,-0.20401 -1.81792,-0.45336 z m 184.289,0.0905 c 0.70083,-0.13275 1.67323,-0.12402 2.16089,0.0194 0.48766,0.14342 -0.0857,0.25203 -1.27423,0.24136 -1.18849,-0.0107 -1.58749,-0.12801 -0.88666,-0.26076 z m 56.76644,-2.0369 c 0.0346,-0.60994 0.20524,-0.734 0.43517,-0.31633 0.20807,0.37796 0.18249,0.82954 -0.0568,1.00353 -0.23935,0.17398 -0.40959,-0.13526 -0.37831,-0.6872 z M 139.5114,134.8809 c 0.51996,-0.15125 1.14121,-0.13265 1.38056,0.0413 0.23935,0.17398 -0.18607,0.29773 -0.94539,0.27499 -0.8391,-0.0251 -1.00978,-0.14919 -0.43517,-0.31632 z m 117.57195,-3.54403 c -1.50295,-1.31637 -0.60853,-2.64305 1.78189,-2.64305 1.71915,0 2.19983,0.25091 2.39411,1.24974 0.37471,1.92638 -2.47993,2.87882 -4.176,1.39331 z m -98.88089,-0.13367 c 0.89598,-0.12524 2.19252,-0.12048 2.88118,0.0106 0.68867,0.13104 -0.0444,0.23351 -1.62906,0.2277 -1.58465,-0.006 -2.1481,-0.11304 -1.25212,-0.23827 z M 312.5174,84.777246 c 0,-0.108721 0.56723,-0.52104 1.26051,-0.916264 1.14243,-0.651264 1.16791,-0.632745 0.27196,0.197683 -0.94098,0.872152 -1.53247,1.149508 -1.53247,0.718581 z m -7.14609,-3.249212 c 0.0346,-0.609944 0.20524,-0.734006 0.43517,-0.316331 0.20807,0.377956 0.18249,0.829543 -0.0568,1.003528 -0.23935,0.173981 -0.40959,-0.135261 -0.37831,-0.687197 z M 169.17857,76.104983 c 0,-0.270974 0.32042,-0.636631 0.71205,-0.812564 0.40831,-0.183431 0.52906,0.02676 0.28308,0.492678 -0.47884,0.907059 -0.99513,1.073018 -0.99513,0.319886 z"
         id="path3186" />
      <path
         style="fill:#333333;fill-opacity:1;stroke-width:0.614111"
         d="m 290.18823,277.97026 c 0,-1.64882 0.25491,-2.88334 0.56646,-2.74337 0.59922,0.2692 0.4262,5.01966 -0.1994,5.47441 -0.20188,0.14675 -0.36706,-1.08222 -0.36706,-2.73104 z m -109.01314,0.29509 c -1.56391,-1.25614 -1.51297,-2.85775 0.12515,-3.93536 1.66275,-1.09381 2.57052,-1.0931 3.81671,0.003 0.90094,0.79241 0.85009,0.80681 -0.57361,0.1624 -1.3122,-0.59395 -1.75025,-0.59363 -2.73753,0.002 -1.48362,0.89502 -1.16214,3.12522 0.56034,3.88735 1.04007,0.46019 1.51203,0.37149 2.34096,-0.43995 0.57105,-0.55898 1.03826,-0.78281 1.03826,-0.4974 0,0.70469 -1.54001,1.77553 -2.55346,1.77553 -0.45361,0 -1.36118,-0.43087 -2.01682,-0.95749 z m 6.33223,0.3883 c -0.26618,-0.31307 -0.0757,-0.84319 0.42331,-1.17806 0.70184,-0.471 0.7809,-0.44741 0.34916,0.10416 -0.33054,0.42229 -0.15335,0.89936 0.43455,1.17004 0.65264,0.30047 0.69881,0.45977 0.1348,0.46504 -0.47182,0.004 -1.07564,-0.24813 -1.34182,-0.56118 z m 5.63719,-1.52512 c 0,-1.29586 0.14047,-1.82599 0.31215,-1.17806 0.17169,0.64793 0.17169,1.70818 0,2.35611 -0.17168,0.64793 -0.31215,0.11781 -0.31215,-1.17805 z m 6.46655,1.75359 c -0.4952,-0.14857 -0.90037,-0.48809 -0.90037,-0.7545 0,-0.26641 0.64018,-0.19378 1.42261,0.16142 1.13604,0.5157 1.60762,0.5095 2.34096,-0.0308 0.74555,-0.5493 0.65526,-0.81776 -0.47984,-1.42674 -1.54782,-0.8304 -0.67421,-1.02685 1.03804,-0.23342 2.11356,0.97938 -0.95096,3.02518 -3.4214,2.28405 z m 6.01547,-0.097 c -0.60279,-0.70896 -0.7687,-4.20516 -0.21854,-4.60508 0.55016,-0.3999 0.54348,-0.42553 0.73464,2.81795 0.13752,2.33337 0.0896,2.49946 -0.5161,1.78713 z m 2.91944,0.045 c -0.18363,-0.21598 0.41456,-0.39269 1.3293,-0.39269 0.91475,0 1.51293,0.17671 1.3293,0.39269 -0.18363,0.21597 -0.78182,0.39268 -1.3293,0.39268 -0.54748,0 -1.14566,-0.17671 -1.3293,-0.39268 z m 5.43499,-0.23564 c -1.60779,-1.16869 -0.50108,-3.58908 1.62066,-3.54442 0.41597,0.009 0.18908,0.25607 -0.5042,0.5496 -0.69329,0.29352 -1.26052,0.98148 -1.26052,1.5288 0,0.54732 0.56723,1.23528 1.26052,1.5288 0.69328,0.29352 0.92017,0.54084 0.5042,0.54959 -0.41597,0.009 -1.14527,-0.26681 -1.62066,-0.61237 z m 10.048,-2.1205 c -0.10191,-2.84288 -0.0125,-3.01058 1.60462,-3.01058 2.03709,0 3.6584,1.23973 3.07257,2.34944 -0.22997,0.43562 -1.2171,0.79204 -2.19363,0.79204 -1.38397,0 -1.84167,0.31751 -2.07557,1.43984 -0.16504,0.79192 -0.34863,0.0851 -0.40799,-1.57074 z m 4.07923,-1.30894 c -0.13213,-0.50395 -0.96623,-0.99156 -1.85355,-1.08358 -1.22533,-0.12707 -1.61331,0.0933 -1.61331,0.91627 0,0.81499 0.45944,1.08357 1.85355,1.08357 1.37662,0 1.79175,-0.23576 1.61331,-0.91626 z m 8.20193,3.42944 c -1.60779,-1.16869 -0.50107,-3.58908 1.62067,-3.54442 0.41597,0.009 0.18907,0.25607 -0.50421,0.5496 -0.69329,0.29352 -1.26052,0.98148 -1.26052,1.5288 0,0.54732 0.56723,1.23528 1.26052,1.5288 0.69328,0.29352 0.92018,0.54084 0.50421,0.54959 -0.41598,0.009 -1.14527,-0.26681 -1.62067,-0.61237 z m 9.21978,0.42252 c 0,-0.11317 0.50304,-0.34608 1.11786,-0.51758 0.64101,-0.1788 0.93013,-0.091 0.67778,0.20577 -0.423,0.49751 -1.79564,0.73587 -1.79564,0.31181 z m 7.92326,0 c 0,-0.11317 0.50303,-0.34608 1.11785,-0.51758 0.64101,-0.1788 0.93013,-0.091 0.67779,0.20577 -0.42301,0.49751 -1.79564,0.73587 -1.79564,0.31181 z m 4.46583,-0.42252 c -2.05173,-1.49139 0.19039,-4.35586 2.37697,-3.03676 0.59425,0.35849 1.08045,1.04705 1.08045,1.53013 0,0.85595 -1.29453,2.13492 -2.16089,2.13492 -0.2377,0 -0.82114,-0.28273 -1.29653,-0.62829 z m 2.37697,-1.46602 c 0,-1.43504 -1.60391,-2.02922 -2.23757,-0.82891 -0.59617,1.12931 0.23333,2.53622 1.33759,2.26866 0.49499,-0.11994 0.89998,-0.76783 0.89998,-1.43975 z m 2.71722,0 c 0,-1.29586 0.14047,-1.82599 0.31215,-1.17806 0.17169,0.64793 0.17169,1.70818 0,2.35611 -0.17168,0.64793 -0.31215,0.11781 -0.31215,-1.17805 z m 2.77982,0.39268 c -0.0535,-1.1075 -0.46115,-1.96342 -0.93517,-1.96342 -0.46218,0 -0.64856,-0.1394 -0.41417,-0.30978 0.2344,-0.17038 0.8629,-0.11148 1.39669,0.13089 0.67246,0.30534 0.82878,1.00345 0.50899,2.27321 l -0.46152,1.83252 z m 15.75168,1.49586 c 0,-0.11317 0.50304,-0.34608 1.11786,-0.51758 0.64101,-0.1788 0.93013,-0.091 0.67778,0.20577 -0.423,0.49751 -1.79564,0.73587 -1.79564,0.31181 z m 4.07292,-0.18691 c -0.18363,-0.21598 0.41455,-0.39268 1.3293,-0.39268 0.91475,0 1.51293,0.1767 1.3293,0.39268 -0.18363,0.21598 -0.78182,0.39268 -1.3293,0.39268 -0.54748,0 -1.14566,-0.1767 -1.3293,-0.39268 z m 13.0341,-0.56721 c 0.69329,-0.52794 1.38775,-0.88705 1.54324,-0.79802 0.4255,0.24362 -1.44519,1.75791 -2.17165,1.75791 -0.34766,0 -0.0649,-0.43195 0.62841,-0.95989 z m 3.5327,0.56721 c -0.18363,-0.21598 0.41455,-0.39268 1.3293,-0.39268 0.91475,0 1.51293,0.1767 1.3293,0.39268 -0.18363,0.21598 -0.78182,0.39268 -1.3293,0.39268 -0.54748,0 -1.14567,-0.1767 -1.3293,-0.39268 z m 13.21418,-0.30542 c 0,-0.52358 -0.57624,-0.87263 -1.44059,-0.87263 -0.79233,0 -1.44059,-0.21356 -1.44059,-0.47456 0,-0.26101 0.64826,-0.35134 1.44059,-0.20073 1.1146,0.21187 1.44059,0.0161 1.44059,-0.86529 0,-0.67829 -0.31291,-0.99855 -0.77347,-0.79164 -0.42541,0.19111 -0.35665,-0.13768 0.1528,-0.73066 0.50945,-0.59297 1.01474,-1.01383 1.12286,-0.93524 0.43945,0.31943 0.4173,5.075 -0.0251,5.39661 -0.26238,0.19073 -0.47705,-0.0459 -0.47705,-0.52586 z m 5.22214,0.13259 c 0.69329,-0.29352 1.28611,-0.93429 1.31739,-1.42392 0.0366,-0.57334 0.18907,-0.65101 0.42824,-0.21817 0.43105,0.78007 -1.00535,2.21498 -2.19397,2.19168 -0.4467,-0.009 -0.24494,-0.25607 0.44834,-0.54959 z m 5.76237,0.0463 c 0.69328,-0.31899 1.26051,-0.90998 1.26051,-1.31332 0,-0.40333 -0.56723,-0.97349 -1.26051,-1.26701 -0.69329,-0.29352 -0.89504,-0.54084 -0.44835,-0.54959 0.4467,-0.009 1.23824,0.35724 1.75897,0.81333 1.05947,0.92794 0.2362,2.37153 -1.54216,2.70413 -0.5966,0.11158 -0.49931,-0.0513 0.23154,-0.38754 z m 3.78665,0.002 c -0.25235,-0.29679 0.0368,-0.38457 0.67778,-0.20577 1.24786,0.34807 1.47617,0.72336 0.44007,0.72336 -0.37278,0 -0.87582,-0.23292 -1.11785,-0.51759 z m 7.558,-0.18044 c 0,-0.52358 -0.57624,-0.87263 -1.44059,-0.87263 -1.57874,0 -1.92317,-0.76857 -0.609,-1.35895 0.51522,-0.23146 0.63606,-0.14363 0.31763,0.23089 -0.30454,0.35819 -0.0564,0.60448 0.60901,0.60448 0.65348,0 1.12295,-0.4507 1.12295,-1.07806 0,-0.63479 -0.31803,-0.93518 -0.77347,-0.73058 -0.42541,0.19111 -0.35664,-0.13768 0.15281,-0.73066 0.50945,-0.59297 1.01473,-1.01383 1.12285,-0.93524 0.43945,0.31943 0.4173,5.075 -0.0251,5.39661 -0.26238,0.19073 -0.47705,-0.0459 -0.47705,-0.52586 z M 171.795,277.7643 c -0.19238,-0.22626 0.25089,-0.41138 0.98505,-0.41138 0.73415,0 1.17742,0.18512 0.98505,0.41138 -0.19237,0.22626 -0.63565,0.41139 -0.98505,0.41139 -0.3494,0 -0.79268,-0.18513 -0.98505,-0.41139 z m 48.87745,-0.12073 c -0.24884,-0.29267 -0.75417,-0.39657 -1.12296,-0.23089 -0.36878,0.16568 -0.67052,0.0517 -0.67052,-0.25325 0,-0.84628 1.95092,-0.66026 2.42136,0.23089 0.47018,0.89064 0.056,1.05766 -0.62788,0.25325 z m 97.66418,-0.29688 c 0.0346,-0.60995 0.20524,-0.73401 0.43517,-0.31633 0.20807,0.37795 0.18249,0.82955 -0.0568,1.00353 -0.23935,0.17398 -0.40959,-0.13527 -0.37831,-0.6872 z m 5.80771,-0.80853 c -0.11326,-2.10464 1.55207,-3.65237 2.88633,-2.6825 0.54193,0.39393 0.37467,0.5332 -0.57075,0.47521 -1.03545,-0.0635 -1.43623,0.39076 -1.77536,2.01229 l -0.43801,2.09432 z m -154.9089,-0.23863 c 0.0346,-0.60994 0.20524,-0.73401 0.43517,-0.31633 0.20807,0.37795 0.18249,0.82955 -0.0568,1.00353 -0.23935,0.17398 -0.40959,-0.13526 -0.37831,-0.6872 z m 82.83399,0 c 0.0346,-0.60994 0.20524,-0.73401 0.43518,-0.31633 0.20807,0.37795 0.18248,0.82955 -0.0568,1.00353 -0.23935,0.17398 -0.40958,-0.13526 -0.37831,-0.6872 z m 22.13724,0.47134 c 0.51996,-0.15125 1.14122,-0.13265 1.38057,0.0413 0.23935,0.17398 -0.18608,0.29772 -0.94539,0.27499 -0.8391,-0.0251 -1.00978,-0.14919 -0.43518,-0.31633 z m 11.29964,-0.16592 c -0.24484,-0.28797 -0.24484,-0.75919 0,-1.04716 0.55545,-0.65329 2.30023,-0.68329 2.83966,-0.0489 0.22201,0.26111 -0.29972,0.34105 -1.15942,0.17763 -1.2401,-0.23573 -1.46823,-0.11746 -1.10405,0.57241 0.50346,0.95367 0.13077,1.17743 -0.57619,0.34595 z m 21.24872,0 c 0,-0.28797 0.34326,-0.52358 0.76281,-0.52358 0.41954,0 0.56248,0.23561 0.31763,0.52358 -0.24484,0.28797 -0.5881,0.52358 -0.7628,0.52358 -0.1747,0 -0.31764,-0.23561 -0.31764,-0.52358 z m 23.41471,0.006 c -0.25235,-0.2968 0.0368,-0.38457 0.67778,-0.20577 1.24786,0.34807 1.47617,0.72335 0.44007,0.72335 -0.37278,0 -0.87582,-0.23291 -1.11785,-0.51758 z m -97.45348,-0.8442 c -0.51082,-0.40291 -0.61099,-0.73256 -0.22258,-0.73256 0.74798,0 1.83079,0.99596 1.40355,1.29097 -0.13871,0.0958 -0.67015,-0.1555 -1.18097,-0.55841 z m 64.67493,0.63241 c 0,-0.11318 0.50303,-0.34609 1.11785,-0.51759 0.64101,-0.17879 0.93014,-0.091 0.67779,0.20577 -0.423,0.49751 -1.79564,0.73587 -1.79564,0.31182 z m 4.55046,-1.31128 c -0.0423,-0.84868 0.0624,-0.99872 0.27752,-0.3978 0.23194,0.64778 0.79761,0.8789 1.72136,0.70331 0.75675,-0.14385 1.21843,-0.0763 1.02598,0.15001 -0.19245,0.22635 -0.93649,0.52305 -1.65342,0.65933 -1.00081,0.19024 -1.31928,-0.0686 -1.37144,-1.11485 z m -112.5948,0.46989 c -0.6492,-0.30496 -0.73804,-0.51075 -0.22259,-0.51556 0.47182,-0.004 1.05819,0.22759 1.30303,0.51556 0.55268,0.65004 0.30333,0.65004 -1.08044,0 z m 9.36384,-0.52358 c 0,-0.57594 0.12427,-1.04716 0.27614,-1.04716 0.15187,0 0.44566,0.47122 0.65286,1.04716 0.2072,0.57594 0.0829,1.04716 -0.27614,1.04716 -0.35907,0 -0.65286,-0.47122 -0.65286,-1.04716 z m 9.83528,0.39269 c 0.18364,-0.21598 0.78182,-0.39269 1.3293,-0.39269 0.54748,0 1.14567,0.17671 1.3293,0.39269 0.18363,0.21597 -0.41455,0.39268 -1.3293,0.39268 -0.91474,0 -1.51293,-0.17671 -1.3293,-0.39268 z m 32.66216,-0.1618 c 0,-0.44895 0.32942,-0.66828 0.73204,-0.4874 0.40263,0.18087 0.54557,0.5482 0.31764,0.81627 -0.61746,0.72622 -1.04968,0.59081 -1.04968,-0.32887 z m 3.35262,0.1618 c 0.18364,-0.21598 0.78182,-0.39269 1.3293,-0.39269 0.54748,0 1.14567,0.17671 1.3293,0.39269 0.18363,0.21597 -0.41455,0.39268 -1.3293,0.39268 -0.91474,0 -1.51293,-0.17671 -1.3293,-0.39268 z m 37.70423,0.13089 c -0.6492,-0.30496 -0.73804,-0.51075 -0.22259,-0.51556 0.47183,-0.004 1.05819,0.22759 1.30303,0.51556 0.55269,0.65004 0.30333,0.65004 -1.08044,0 z m 37.2753,0.17682 c 0.4952,-0.14524 1.30553,-0.14524 1.80074,0 0.4952,0.14525 0.09,0.26409 -0.90037,0.26409 -0.99041,0 -1.39558,-0.11884 -0.90037,-0.26409 z M 201.59187,274.2052 c -1.21107,-0.48847 -1.41685,-0.72884 -0.62841,-0.73403 0.64477,-0.004 1.57582,0.3457 2.069,0.77765 1.05184,0.92126 0.94346,0.91797 -1.44059,-0.0436 z m 119.25133,0.027 c -0.769,-0.42279 -1.05179,-0.76872 -0.62842,-0.76872 0.42337,0 1.17328,0.35342 1.66646,0.78537 1.12164,0.9824 0.7688,0.97674 -1.03804,-0.0166 z m -22.73172,-0.24514 c -0.64919,-0.30496 -0.73803,-0.51074 -0.22258,-0.51556 0.47182,-0.004 1.05818,0.22759 1.30303,0.51556 0.55268,0.65004 0.30333,0.65004 -1.08045,0 z m 5.76237,0 c -0.6492,-0.30496 -0.73804,-0.51074 -0.22259,-0.51556 0.47182,-0.004 1.05819,0.22759 1.30303,0.51556 0.55268,0.65004 0.30333,0.65004 -1.08044,0 z m 5.76236,0 c -0.64919,-0.30496 -0.73803,-0.51074 -0.22258,-0.51556 0.47182,-0.004 1.05818,0.22759 1.30303,0.51556 0.55268,0.65004 0.30333,0.65004 -1.08045,0 z m -58.34394,-29.98309 c -0.99041,-0.36988 -1.90432,-1.19674 -2.03091,-1.83746 -0.28519,-1.44343 -1.27617,-1.51624 -1.77474,-0.1304 -0.48854,1.358 -3.52234,2.32905 -5.91357,1.8928 -1.0462,-0.19087 -2.41652,-0.99845 -3.04513,-1.79462 l -1.14294,-1.44757 -1.65716,1.20458 c -0.95978,0.69766 -2.52747,1.20458 -3.72523,1.20458 -2.25384,0 -5.20037,-1.85975 -5.20037,-3.28231 0,-0.68009 -0.36778,-0.59138 -1.768,0.42642 -2.40596,1.74888 -5.59203,1.70901 -7.54357,-0.0944 -0.82107,-0.75876 -1.49287,-1.70825 -1.49287,-2.11 0,-0.53357 -0.56674,-0.42585 -2.10295,0.39974 -3.33541,1.7925 -7.98118,0.36919 -7.98118,-2.44517 0,-1.47313 -0.40395,-1.57629 -1.90364,-0.48618 -1.5452,1.1232 -5.53853,0.99245 -7.062,-0.23122 -0.69611,-0.55912 -1.31359,-1.6192 -1.37215,-2.35573 -0.1259,-1.58311 -0.044,-1.56533 -2.28748,-0.4968 -3.25357,1.5496 -7.54301,-0.15254 -7.54301,-2.99323 0,-1.37193 -0.16145,-1.48895 -1.39324,-1.00976 -4.0702,1.5834 -8.30966,-0.17908 -8.18397,-3.40233 0.0676,-1.73461 0.0134,-1.77262 -1.45905,-1.02293 -2.20719,1.12377 -3.90121,0.96342 -6.00909,-0.56879 -1.50515,-1.09408 -1.77832,-1.68487 -1.45294,-3.14235 0.37128,-1.66306 0.29557,-1.75404 -1.0304,-1.2382 -2.24819,0.87459 -5.04404,0.3624 -6.66291,-1.22063 -1.27816,-1.24986 -1.36835,-1.67346 -0.65061,-3.05568 0.74379,-1.43235 0.70211,-1.56447 -0.3881,-1.23044 -3.08888,0.94641 -4.41277,0.84703 -6.22043,-0.46695 -1.90789,-1.38684 -2.31761,-2.90741 -1.19443,-4.43281 0.56958,-0.77358 0.27071,-0.85992 -2.43423,-0.70325 -2.56351,0.14848 -3.28039,-0.0257 -4.25079,-1.03277 -1.3753,-1.42726 -1.52372,-3.65128 -0.3029,-4.53869 0.67228,-0.48868 0.21689,-0.6283 -2.04925,-0.6283 -1.90788,0 -3.32508,-0.33051 -4.10568,-0.95749 -1.3073,-1.05004 -1.61653,-4.02582 -0.47179,-4.54009 1.17042,-0.52581 0.82123,-1.44914 -0.41738,-1.10364 -2.00344,0.55883 -4.64314,-0.28326 -5.74556,-1.83288 -1.07381,-1.50941 -0.77001,-4.1318 0.47867,-4.1318 0.35321,0 0.6422,-0.23561 0.6422,-0.52358 0,-0.28797 -0.95977,-0.52358 -2.13282,-0.52358 -4.01554,0 -6.3781,-3.25506 -4.0126,-5.52841 1.45266,-1.39606 1.38323,-1.52806 -0.85349,-1.62246 -4.09303,-0.17275 -5.90168,-4.02118 -2.95967,-6.29755 l 1.56615,-1.2118 h -1.92629 c -4.20314,0 -6.39176,-4.08419 -3.36689,-6.28295 1.85973,-1.35183 1.81523,-1.57074 -0.31931,-1.57074 -2.02716,0 -4.00247,-1.74883 -4.00247,-3.54356 0,-0.66894 0.79688,-1.79549 1.77083,-2.50346 l 1.77083,-1.28721 -2.41922,-0.73475 c -1.77726,-0.53978 -2.55076,-1.1701 -2.91493,-2.37533 -0.55503,-1.83688 1.07554,-4.21591 2.88954,-4.21591 0.58511,0 1.06384,-0.23561 1.06384,-0.52358 0,-0.28797 -0.59803,-0.52358 -1.32895,-0.52358 -1.9178,0 -3.71487,-1.67202 -3.70209,-3.44449 0.0142,-1.97302 0.81859,-2.85462 3.3454,-3.66668 1.80784,-0.581 1.86337,-0.66242 0.4774,-0.69999 -1.76018,-0.0477 -4.55412,-2.32231 -4.55412,-3.70758 0,-1.16883 2.69609,-3.66506 3.95849,-3.66506 0.55848,0 0.0761,-0.6518 -1.13272,-1.53046 -1.15801,-0.84176 -2.10548,-2.09319 -2.10548,-2.78096 0,-1.57144 2.46252,-3.54227 4.42601,-3.54227 1.33278,0 1.2544,-0.1591 -0.74835,-1.51901 -2.39491,-1.6262 -2.64213,-2.35061 -1.52866,-4.47943 0.47356,-0.90539 1.42873,-1.45911 2.88119,-1.67027 1.19502,-0.17373 2.17277,-0.39352 2.17277,-0.48842 0,-0.0949 -0.81033,-0.76156 -1.80074,-1.48149 -2.19183,-1.59323 -2.2757,-2.87073 -0.30787,-4.6892 1.03212,-0.95378 2.17364,-1.37956 3.69862,-1.37956 h 2.20574 l -1.89787,-1.08516 c -2.65106,-1.51581 -2.62498,-4.18247 0.0559,-5.71534 1.07459,-0.61442 2.53319,-1.007 3.24133,-0.87238 1.56626,0.29772 1.66631,-0.12152 0.2168,-0.90846 -0.58891,-0.31971 -1.27339,-1.33141 -1.52108,-2.24822 -0.36732,-1.35963 -0.0956,-1.924776 1.4739,-3.065645 1.35693,-0.986344 2.44244,-1.326708 3.68196,-1.154471 1.99155,0.276738 2.27491,-0.217484 0.67729,-1.181279 -0.59424,-0.358489 -1.08044,-1.411067 -1.08044,-2.339069 0,-2.240967 2.17607,-3.642363 5.54794,-3.57289 1.43004,0.02948 2.27389,-0.100857 1.87523,-0.289602 -0.39867,-0.18875 -1.12465,-0.894682 -1.6133,-1.568738 -1.81443,-2.502897 2.09625,-5.892235 5.80999,-5.035445 1.40028,0.323054 1.88373,-0.503699 0.62516,-1.069107 -1.22187,-0.54892 -0.79845,-2.666244 0.83507,-4.175775 1.35499,-1.25214 1.92299,-1.401465 4.40899,-1.159084 2.10789,0.20551 2.6426,0.124826 2.04611,-0.30876 -1.32084,-0.960114 -0.95035,-3.938767 0.63308,-5.089756 1.62006,-1.177609 4.97751,-1.382187 6.44462,-0.392685 0.79816,0.538329 0.8712,0.468646 0.41157,-0.392684 -1.33874,-2.508798 -1.23106,-3.351107 0.59843,-4.680951 1.93946,-1.409784 4.00146,-1.683972 6.20817,-0.825512 1.20192,0.467572 1.28886,0.329311 0.94947,-1.50995 -0.29468,-1.597008 -0.0516,-2.258671 1.15062,-3.132597 1.58258,-1.150364 5.41786,-1.511492 6.20614,-0.584366 0.9122,1.072882 1.5024,0.467144 1.22539,-1.257653 -0.48922,-3.046074 3.82712,-4.99166 7.71698,-3.478418 1.09794,0.427126 1.29364,0.26736 1.34712,-1.099785 0.11751,-3.00437 4.25048,-4.554001 8.1254,-3.04657 1.19938,0.466584 1.39324,0.365374 1.39324,-0.727365 0,-3.140454 5.39863,-4.828925 8.63425,-2.700437 1.42237,0.935681 1.44989,0.923973 1.44989,-0.616957 0,-3.001801 5.41484,-4.642344 8.53911,-2.587107 1.29412,0.851311 1.37403,0.821081 1.78582,-0.675559 0.28752,-1.044998 1.17074,-1.844785 2.65218,-2.401644 2.52129,-0.947737 4.44148,-0.672969 6.49523,0.929431 l 1.41623,1.104981 v -1.145886 c 0,-3.088035 6.76486,-4.48845 9.11069,-1.88603 l 1.22066,1.354173 0.77677,-1.735623 c 1.33001,-2.971833 7.47423,-3.450145 9.18848,-0.715301 l 0.79962,1.275691 1.15669,-1.68282 c 0.98494,-1.432937 1.59913,-1.706295 4.13623,-1.840917 2.47902,-0.131539 3.22244,0.06636 4.42544,1.178054 1.74107,1.608916 2.04028,1.643902 2.52545,0.295295 0.92513,-2.571524 7.97365,-2.316252 8.88451,0.321766 0.53411,1.546903 1.16431,1.576701 2.08291,0.09849 1.65914,-2.66989 7.73345,-2.233796 9.11869,0.654659 0.76389,1.592852 0.78155,1.597721 1.58463,0.437033 1.86548,-2.696154 7.82165,-2.305268 9.2173,0.604904 l 0.76999,1.605576 1.38293,-1.078995 c 2.79775,-2.182897 8.42176,-0.890733 8.72172,2.003892 0.14048,1.355502 0.18299,1.356767 1.96892,0.05859 0.79232,-0.575937 2.20721,-1.047158 3.14419,-1.047158 2.45916,0 5.49935,1.91884 5.49935,3.470955 0,1.239474 0.0753,1.262308 1.60087,0.485578 3.71479,-1.891342 8.48327,-0.243735 8.48327,2.931146 0,1.622252 0.026,1.634775 1.44989,0.698105 3.40638,-2.240823 9.11275,-0.24499 8.46546,2.960839 -0.28587,1.415769 -0.27622,1.419116 1.81902,0.631531 1.17471,-0.441564 2.86456,-0.653466 3.82045,-0.479073 2.24682,0.409907 4.15063,2.573568 3.71662,4.223898 -0.34317,1.304902 0.41315,1.77687 1.25699,0.784399 0.78827,-0.927126 4.62356,-0.565998 6.20614,0.584366 1.21824,0.885536 1.44654,1.528881 1.13728,3.204872 -0.28581,1.548941 -0.1759,1.943537 0.42059,1.50995 1.35771,-0.986918 5.42238,-0.688067 7.08567,0.520972 1.19595,0.86933 1.44484,1.538119 1.15565,3.105338 -0.34984,1.895923 -0.28901,1.971051 1.19731,1.478792 3.79665,-1.257433 7.96354,1.82137 6.43887,4.757509 l -0.76589,1.474928 2.68454,-0.261732 c 4.56356,-0.444933 6.80766,2.221144 4.76319,5.65885 -0.40387,0.679093 -0.0896,0.785851 1.73919,0.590744 4.33507,-0.462488 7.31271,3.273433 4.73838,5.945049 -0.9626,0.998979 -0.8924,1.042567 1.37003,0.850576 4.30063,-0.364956 7.29852,3.686233 4.32649,5.84659 -1.44265,1.048656 -1.36152,1.339143 0.28651,1.02587 1.67128,-0.317687 4.601,0.739644 4.0019,1.444277 -0.23863,0.280654 -0.004,0.44554 0.52004,0.366417 1.51453,-0.228422 1.64921,3.169534 0.17264,4.35553 -1.18345,0.95055 -1.17331,0.99818 0.21235,0.99818 0.8003,0 2.30914,0.48832 3.35297,1.08516 2.33459,1.33487 2.49419,3.45838 0.405,5.38898 l -1.49287,1.37955 h 1.85302 c 2.37023,0 4.7342,1.71126 4.7342,3.42706 0,0.73301 -0.7956,1.91107 -1.768,2.61791 -1.55898,1.13321 -1.61099,1.28515 -0.43994,1.28515 0.73043,0 2.07705,0.44086 2.9925,0.97969 2.27009,1.33618 2.31371,4.53244 0.0798,5.84732 -1.52684,0.8987 -2.25152,1.91164 -0.94902,1.32649 0.3496,-0.15704 1.48407,0.19957 2.52103,0.79247 2.56508,1.46665 2.60594,4.17909 0.0847,5.62069 -2.01502,1.15215 -2.27103,1.66429 -0.83194,1.66429 1.90393,0 3.49419,1.94554 3.28729,4.02171 -0.1096,1.0997 0.0581,2.64909 0.37277,3.44311 0.67241,1.69702 -0.93073,3.84646 -3.41034,4.57247 -0.86826,0.25423 -1.18613,0.47717 -0.70636,0.49542 1.51793,0.0577 3.80961,2.27175 3.80961,3.68047 0,1.77959 -1.88231,3.68283 -3.64232,3.68283 -0.76986,0 -1.39975,0.23561 -1.39975,0.52358 0,0.28797 0.4748,0.52359 1.05511,0.52359 1.37564,0 2.54637,1.63193 2.54637,3.54947 0,1.64549 -1.89914,3.25705 -3.83827,3.25705 -1.62479,0 -1.51816,0.65256 0.23679,1.44923 1.03393,0.46935 1.44059,1.221 1.44059,2.66269 0,2.24564 -1.6787,3.74177 -4.19841,3.74177 -1.95403,0 -2.00469,0.59519 -0.12336,1.44923 0.99375,0.45111 1.44059,1.221 1.44059,2.48205 0,2.21737 -2.09423,3.92241 -4.81774,3.92241 h -1.93656 l 1.57641,1.06756 c 3.26219,2.20917 0.92865,6.26256 -3.60535,6.26256 -2.20364,0 -2.2206,0.0192 -0.93234,1.05391 3.10494,2.49392 0.33536,6.62384 -4.12305,6.14819 -2.29896,-0.24527 -2.43089,-0.10469 -0.92743,0.98817 3.00135,2.18167 -0.0289,6.21128 -4.39234,5.84101 -2.82352,-0.23961 -2.80854,-0.25504 -1.33716,1.37728 2.38013,2.64047 -1.08471,5.98381 -5.53133,5.33737 -1.89015,-0.27479 -2.10631,-0.20835 -1.38303,0.42515 1.45157,1.27136 0.61178,4.00392 -1.59735,5.19758 -1.69992,0.91852 -2.3146,0.99123 -4.1417,0.48993 -2.39883,-0.65818 -2.51861,-0.57611 -1.27384,0.87273 1.20442,1.40188 -0.002,3.6974 -2.47426,4.70585 -1.54774,0.63147 -2.37966,0.67342 -4.0836,0.20591 -2.0714,-0.56833 -2.11896,-0.54713 -1.48601,0.66301 0.81544,1.55902 -0.17583,3.60742 -2.10981,4.35978 -1.9222,0.74778 -4.62605,0.7014 -5.77603,-0.0991 -0.76795,-0.53455 -0.8552,-0.36037 -0.47615,0.95062 0.91756,3.17339 -3.98683,5.54534 -8.1318,3.93286 -1.07849,-0.41956 -1.20581,-0.25715 -0.9665,1.23287 0.22124,1.3776 -0.11186,1.93763 -1.68886,2.83931 -2.33388,1.33446 -4.45345,1.42753 -6.68107,0.29337 -1.57081,-0.79975 -1.61435,-0.78469 -1.2,0.41534 0.65662,1.90168 -2.02214,4.07958 -5.01778,4.07958 -1.3093,0 -2.78406,-0.35342 -3.27724,-0.78537 -1.32,-1.15613 -2.00633,-0.95729 -1.63036,0.47233 0.70042,2.66335 -6.03307,4.78934 -8.45378,2.66914 -0.96667,-0.84666 -2.51393,-1.10061 -1.8341,-0.30102 0.73352,0.86272 -1.18149,3.09415 -3.16897,3.69256 -2.29225,0.69016 -5.58736,-0.0208 -6.29322,-1.35789 -0.34029,-0.6446 -0.6533,-0.41722 -1.24206,0.90226 -1.40044,3.13855 -5.95248,3.8267 -9.09489,1.37489 -1.12778,-0.87992 -1.41622,-0.93672 -1.41622,-0.27889 0,2.95805 -6.19204,4.25791 -8.9959,1.88846 l -1.55287,-1.31228 -0.90922,1.49308 c -1.57325,2.58354 -7.50114,2.612 -9.06117,0.0435 -0.8665,-1.42665 -1.81001,-1.52444 -1.81001,-0.18761 0,1.95582 -4.21155,3.13654 -7.20295,2.01935 z m 0.24324,-8.85267 c 1.05787,-1.21905 0.0367,-2.527 -1.97284,-2.527 -2.36811,0 -3.33052,1.97771 -1.44906,2.97774 1.52629,0.81125 2.43008,0.6922 3.4219,-0.45074 z m 11.52473,0 c 1.07052,-1.23362 0.0359,-2.527 -2.02138,-2.527 -1.00284,0 -1.82334,0.0985 -1.82334,0.21896 0,0.12044 -0.18071,0.56128 -0.40157,0.97965 -0.45759,0.8668 1.61796,2.60803 2.77468,2.32776 0.42092,-0.10199 1.08314,-0.5517 1.47161,-0.99937 z m -22.79531,-0.76564 c 0.59586,-1.12872 -0.68373,-2.54673 -2.29813,-2.54673 -0.70597,0 -1.6136,0.38029 -2.01694,0.8451 -1.10042,1.26808 -0.0833,2.55816 2.01694,2.55816 1.04454,0 2.04226,-0.37185 2.29813,-0.85653 z m 34.70023,-0.0462 c 0.91945,-1.19424 -0.25221,-2.76229 -2.06402,-2.76229 -1.89029,0 -3.27656,1.90252 -2.12268,2.91315 1.17027,1.02498 3.34168,0.94675 4.1867,-0.15084 z m -46.86641,-0.77269 c 1.29708,-0.94284 1.04167,-2.40736 -0.52621,-3.0173 -2.66033,-1.03493 -4.99791,1.97637 -2.39099,3.08008 1.6364,0.69281 1.88509,0.68746 2.9172,-0.0628 z m 58.12786,-1.72781 c 0,-1.30731 -0.28884,-1.57074 -1.72224,-1.57074 -2.30569,0 -3.5694,1.453 -2.26065,2.59927 0.5366,0.47 1.65228,0.78426 2.47926,0.69837 1.14276,-0.11869 1.50363,-0.53314 1.50363,-1.7269 z m -68.52775,-1.04716 c 0.9332,-1.76773 -1.6912,-3.4484 -3.59311,-2.30103 -1.04081,0.62789 -1.323,2.14562 -0.50895,2.73734 0.89475,0.6504 3.68505,0.35361 4.10206,-0.43631 z m 79.74244,-0.0439 c 1.27956,-1.12071 -0.007,-2.57401 -2.27964,-2.57401 -1.95999,0 -2.69951,1.45515 -1.34323,2.64305 1.12963,0.9894 2.44299,0.96437 3.62287,-0.069 z m -91.1868,-2.63478 c 1.3381,-0.97266 1.17027,-1.72194 -0.5638,-2.51704 -1.28533,-0.58934 -3.40372,0.0148 -3.90804,1.1146 -0.2772,0.60449 1.68992,2.24857 2.69039,2.24857 0.33957,0 1.14122,-0.38076 1.78145,-0.84614 z m 101.99123,-0.50669 c 0.68708,-0.60178 0.73913,-1.06856 0.18976,-1.70163 -0.9632,-1.10998 -3.10551,-1.12438 -4.05755,-0.0273 -1.71929,1.98125 1.78913,3.54951 3.86779,1.72891 z m -56.48963,-0.55055 c 3.84148,-1.32506 7.3068,-5.48678 8.82807,-10.60221 0.94881,-3.19047 -0.01,-4.89549 -2.62952,-4.67638 -2.41078,0.20164 -3.20016,2.34073 -1.2469,3.37892 1.14505,0.60861 1.1505,0.82473 0.0784,3.11186 -0.63366,1.3518 -1.95153,3.21968 -2.92859,4.15082 -1.76096,1.67821 -4.40014,2.6352 -5.0758,1.84053 -0.28851,-0.33933 1.70501,-5.694 4.24426,-11.40022 0.49549,-1.11348 0.33035,-1.17805 -3.01279,-1.17805 h -3.53701 l -1.61766,4.31953 c -2.13798,5.70888 -3.48698,7.72279 -5.17308,7.72279 -1.79753,0 -1.73901,-0.4633 0.85438,-6.7645 1.2171,-2.9572 2.10847,-5.43986 1.98082,-5.51703 -0.31285,-0.18911 -6.35461,-0.74207 -6.35461,-0.58159 0,0.0697 -0.9687,2.46229 -2.15267,5.31687 -2.41212,5.81565 -2.71002,8.649 -1.03721,9.86496 1.45555,1.05803 5.95461,1.06167 7.55922,0.006 1.13499,-0.74662 1.39956,-0.70172 3.08524,0.52358 2.13969,1.55534 4.60448,1.70198 8.13546,0.48402 z m 19.70445,-0.664 c 0.9904,-0.50068 2.36746,-1.71822 3.06014,-2.70564 l 1.25939,-1.79531 10e-4,2.54527 0.001,2.54527 2.69562,-0.36759 c 1.4826,-0.20218 2.98171,-0.49611 3.33138,-0.6532 0.34967,-0.15709 0.47774,-2.78632 0.2846,-5.84273 -0.36583,-5.77902 0.14038,-7.91323 1.87627,-7.91323 1.43057,0 1.89563,1.17069 1.89563,4.77185 0,5.80081 2.90803,8.25692 7.9712,6.73246 2.20567,-0.66411 3.69096,-2.2332 4.53274,-4.78851 l 0.46108,-1.39967 2.18502,1.58827 c 2.16921,1.57679 3.35725,1.7009 6.65266,0.69497 1.20646,-0.36827 1.21022,-0.30785 0.0707,1.13538 -1.05919,1.34151 -1.08224,1.70833 -0.19215,3.05825 1.5376,2.33196 4.25058,2.7903 8.14583,1.37621 1.76159,-0.63951 3.33234,-1.44504 3.49057,-1.79009 0.47999,-1.04671 -0.6881,-4.67878 -4.58099,-14.24401 l -3.7152,-9.12868 -2.78675,1.03342 c -1.53273,0.56838 -2.78676,1.26424 -2.78676,1.54636 0,0.28212 -0.7854,0.51294 -1.74533,0.51294 -0.98123,0 -2.69717,0.69188 -3.91948,1.58037 -2.66321,1.93588 -3.53976,5.28575 -2.3574,9.00912 0.68316,2.15131 0.64001,2.70508 -0.26185,3.36063 -0.59388,0.4317 -1.07978,1.11319 -1.07978,1.51444 0,0.82549 -2.45087,1.95182 -3.14663,1.44608 -0.25017,-0.18185 -0.47417,-1.41051 -0.49779,-2.73037 -0.0728,-4.06989 -1.12187,-7.503 -2.51971,-8.24597 -1.89602,-1.00778 -4.85225,-0.85881 -6.61243,0.33319 -0.88314,0.59807 -1.63198,0.79512 -1.7816,0.46882 -0.179,-0.39032 -1.21962,-0.35349 -3.39431,0.12012 l -3.13618,0.68301 0.43005,5.13112 c 0.35951,4.28945 0.25776,5.13113 -0.62025,5.13113 -0.57768,0 -1.05032,0.23561 -1.05032,0.52358 0,0.64973 -2.64969,2.6179 -3.52441,2.6179 -1.21607,0 -1.29862,-1.32222 -0.44133,-7.06832 0.4726,-3.16766 0.76286,-5.84666 0.64504,-5.95334 -0.11782,-0.10669 -1.63435,-0.0392 -3.37007,0.15003 l -3.15583,0.344 -0.83978,6.23803 c -0.91234,6.77705 -0.5238,8.3509 2.30508,9.33716 1.81298,0.63207 3.73668,0.3529 6.22042,-0.90272 z m 38.19857,-4.37005 c 0.0126,-0.64793 0.46047,-1.5973 0.99526,-2.10971 0.87361,-0.83704 1.01757,-0.84599 1.41768,-0.0881 0.95518,1.80936 0.49335,3.37583 -0.99526,3.37583 -1.02053,0 -1.43391,-0.3435 -1.41768,-1.17805 z m 0.38355,-4.21122 c 0.27049,-0.51636 0.67325,-0.80695 0.89502,-0.64574 0.22177,0.1612 4.6e-4,0.58368 -0.4918,0.93884 -0.71138,0.51324 -0.79411,0.45311 -0.40322,-0.2931 z m -5.72017,-4.02705 c -1.95153,-3.54532 -2.22784,-6.09922 -0.82792,-7.65227 1.66804,-1.85051 2.57585,-1.07552 4.57057,3.90187 1.13147,2.82335 1.34774,4.11445 0.81127,4.8431 -1.24749,1.69436 -3.28948,1.20439 -4.55392,-1.0927 z m -108.52168,10.7504 c 1.45012,-1.2701 0.21728,-2.99203 -2.0078,-2.80436 -2.13876,0.18039 -2.9148,1.59699 -1.53627,2.80438 1.10593,0.96864 2.43812,0.96863 3.54407,-2e-5 z m 32.49037,-2.60416 c 3.49132,-1.67945 3.22417,-2.30569 -0.59295,-1.38997 -1.49194,0.35791 -3.84351,0.57271 -5.22572,0.47734 -2.34649,-0.1619 -2.51311,-0.29489 -2.51311,-2.00592 0,-1.693 0.15154,-1.81965 1.99016,-1.66327 4.91275,0.41781 10.61501,-2.63199 10.61501,-5.67733 0,-3.39164 -7.59191,-4.32948 -12.80909,-1.58233 -3.30083,1.73809 -6.51504,5.34458 -7.10051,7.9671 -0.43048,1.92824 1.57132,4.31757 4.34266,5.18336 2.70558,0.84525 8.1198,0.21772 11.29355,-1.30898 z m -6.53104,-6.84389 c 0,-0.64087 5.31291,-4.45193 6.20633,-4.45193 1.7716,0 1.05822,1.96356 -1.21953,3.35672 -1.92992,1.18042 -4.9868,1.85178 -4.9868,1.09521 z m -36.15884,5.39136 c 1.26283,-0.91795 1.05588,-2.40183 -0.41476,-2.97394 -2.85438,-1.11042 -5.2969,1.8536 -2.50244,3.03672 1.6364,0.69281 1.88509,0.68746 2.9172,-0.0628 z M 328.5814,219.4751 c 1.08031,-1.24713 0.0824,-2.55817 -1.9471,-2.55817 -2.09649,0 -3.17554,1.73787 -1.81756,2.92727 1.08073,0.94655 2.76831,0.7811 3.76466,-0.3691 z m -120.60465,-3.44407 c 1.04419,-0.55058 2.66848,-2.11742 3.60955,-3.48187 1.69323,-2.45501 1.69882,-2.51734 0.53833,-5.99394 -2.01835,-6.0466 -1.41934,-7.96357 2.48843,-7.96357 3.91255,0 4.5833,3.20513 0.88465,4.22731 -1.50421,0.41571 -1.66458,0.63611 -0.93061,1.27895 1.2884,1.12846 4.03166,0.95153 5.7244,-0.36919 5.56555,-4.34241 -7.7981,-10.59008 -13.88339,-6.49064 -2.49194,1.67873 -3.00222,3.43581 -2.02501,6.97283 1.2497,4.52324 1.03411,6.14934 -1.05452,7.95363 -2.21132,1.91029 -5.17964,2.13747 -7.15866,0.5479 -1.05161,-0.84466 -1.18064,-1.35551 -0.62815,-2.487 0.60775,-1.24468 1.07792,-1.42399 3.73378,-1.42399 2.64783,0 3.03836,-0.14764 3.03755,-1.14837 -0.001,-1.43649 -2.54909,-2.77847 -5.2753,-2.77847 -3.09483,0 -6.97066,3.00532 -6.97066,5.40505 0,5.26557 11.7032,9.02386 17.90961,5.75137 z m -31.20958,-1.2668 c 0.96693,-2.21452 -3.29798,-3.427 -4.44067,-1.26244 -0.68963,1.30634 0.28913,2.36798 2.18314,2.36798 1.17344,0 1.93837,-0.37459 2.25753,-1.10554 z m 161.53555,-0.7728 c 0.11816,-0.60114 -0.28288,-1.39323 -0.8912,-1.76021 -2.19567,-1.32458 -5.07104,0.76551 -3.2488,2.36154 1.27741,1.11882 3.87608,0.74136 4.14,-0.60133 z m -170.97634,-4.18022 c 1.42127,-1.03311 1.42153,-1.50979 0.001,-2.54206 -0.85332,-0.62028 -1.47137,-0.68911 -2.52103,-0.28077 -1.56788,0.60994 -1.82329,2.07446 -0.52622,3.0173 1.13912,0.82802 1.68733,0.79302 3.04583,-0.19447 z m 103.07346,-0.76382 c 1.89682,-1.52355 0.7255,-3.84625 -2.05737,-4.07972 -3.7216,-0.31223 -5.42462,2.15166 -2.8928,4.18524 1.55705,1.25064 3.30823,1.2133 4.95017,-0.10552 z m 76.27645,-0.14621 c 0.81076,-0.9343 -0.0204,-2.47415 -1.53337,-2.84073 -0.83162,-0.2015 -3.09341,1.22839 -3.09341,1.95563 0,0.72724 2.26179,2.15713 3.09341,1.95563 0.42092,-0.10198 1.11093,-0.58372 1.53337,-1.07053 z m -186.95843,-5.4529 c 0.91723,-1.19139 -0.25062,-2.76231 -2.05357,-2.76231 -1.82001,0 -2.97915,1.52071 -2.08491,2.73527 0.87298,1.18571 3.23455,1.20114 4.13848,0.027 z m 195.20011,-0.52358 c 0.91723,-1.19139 -0.25063,-2.76231 -2.05357,-2.76231 -1.82001,0 -2.97915,1.52071 -2.08492,2.73527 0.87299,1.18571 3.23456,1.20114 4.13849,0.027 z m -90.30023,-3.86631 c 9.29033,-0.82757 17.57018,-2.67562 26.65093,-5.94846 9.46693,-3.41203 15.48281,-6.62999 22.79485,-12.19323 9.0393,-6.87739 15.23294,-14.46939 18.99145,-23.27922 l 1.94773,-4.56542 2.04705,0.76947 c 3.52238,1.32403 8.75991,0.81091 12.91037,-1.26484 0.90267,-0.45145 0.75486,-0.77145 -0.95577,-2.06933 -1.95875,-1.48614 -2.09423,-1.50968 -4.2305,-0.73501 -1.58285,0.57397 -2.73841,0.66442 -4.08631,0.31986 -1.7815,-0.45542 -1.87936,-0.66957 -1.87936,-4.11281 0,-3.35899 0.13978,-3.68939 1.8572,-4.39009 1.63975,-0.66901 2.13138,-0.6583 4.1991,0.0915 2.29477,0.83214 2.37655,0.82064 4.06248,-0.5713 2.16855,-1.79038 2.16702,-1.81054 -0.21471,-2.81792 -2.92089,-1.23542 -6.24005,-1.61635 -9.09353,-1.04364 l -2.5251,0.5068 -0.44993,-2.95972 c -1.59964,-10.52258 -6.32062,-20.0346 -14.1419,-28.49374 -3.88062,-4.19711 -15.54194,-12.673659 -21.31596,-15.494464 -28.34344,-13.846756 -64.49328,-13.84352 -92.55467,0.0083 -5.75655,2.841575 -14.86144,9.192594 -19.36168,13.505524 -4.72846,4.53165 -10.98619,13.79764 -13.27794,19.66097 -1.013,2.59172 -2.2773,7.30393 -2.80955,10.47159 -0.53226,3.16765 -1.0025,5.39113 -1.04499,4.94106 -0.0425,-0.45007 -0.96861,-1.43892 -2.05806,-2.19744 -3.90229,-2.71695 -9.67816,-3.65513 -15.29443,-2.48431 -2.09369,0.43648 -2.7189,0.36176 -3.84951,-0.46009 -1.3196,-0.9592 -1.27564,-1.00179 1.96183,-1.90053 4.78113,-1.32725 12.05847,-0.88378 16.12606,0.98271 l 3.03686,1.39352 v -2.62447 c 0,-4.36212 -0.95267,-4.71876 -12.60517,-4.71876 -8.7636,0 -9.86627,0.10342 -11.16458,1.04716 -0.8005,0.58187 -1.4725,1.80325 -1.51239,2.74879 -0.1462,3.46493 -0.59838,3.7944 -5.23159,3.8119 -3.70907,0.014 -4.43219,0.19278 -5.94244,1.46905 -1.66171,1.40425 -1.71949,1.74242 -1.71949,10.06294 v 8.60986 h 6.5166 6.5166 l -2.1058,-1.96342 c -2.67149,-2.49087 -3.72704,-4.81917 -3.71461,-8.19361 0.0152,-4.13822 0.52629,-5.06531 2.4424,-4.4307 1.41036,0.4671 1.58717,0.91941 1.57249,4.02285 -0.0194,4.10994 1.81664,7.15867 5.51254,9.15329 2.57305,1.38865 6.39499,2.46039 8.75768,2.45583 4.95464,-0.01 10.79843,-2.64775 13.2131,-5.96507 l 1.18204,-1.62391 0.5586,2.2859 c 0.48824,1.99801 0.35742,2.40794 -1.03877,3.25495 l -1.59735,0.96905 1.92208,0.0174 c 1.72986,0.0156 2.0812,0.37088 3.51303,3.55158 0.87501,1.94379 3.16756,5.77246 5.09453,8.50816 15.57302,22.10885 48.60461,34.89092 82.38849,31.8815 z m 9.47591,-10.80743 c -0.33813,-0.39862 -12.71724,-33.44681 -12.71724,-33.95089 0,-0.15095 0.27212,-0.15221 0.60471,-0.003 0.89896,0.40386 1.0323,-10.82468 0.1566,-13.1886 -1.08811,-2.93735 -2.98979,-3.98294 -7.16084,-3.9372 -1.90411,0.0209 -4.20158,0.32567 -5.1055,0.67732 -2.9127,1.13311 -2.99309,-0.36313 -0.23702,-4.41188 l 2.53498,-3.72396 -1.51679,-3.70215 c -0.83424,-2.03618 -2.25319,-4.49645 -3.15323,-5.46727 -2.34228,-2.52648 -7.36113,-4.59279 -12.80085,-5.27025 -5.82189,-0.72505 -8.46964,-2.13185 -10.95415,-5.82014 -3.41847,-5.07476 -4.47851,-11.683444 -2.44226,-15.225924 2.84236,-4.944871 11.5033,-6.527997 17.07372,-3.120889 3.10093,1.896656 4.94287,4.823108 7.18062,11.408523 2.11422,6.22187 9.55178,20.89997 11.58124,22.85569 1.24553,1.20028 1.24959,1.20052 2.83313,0.16832 3.42074,-2.22975 14.67572,-15.28811 19.19252,-22.26774 3.35879,-5.190224 5.84925,-7.486643 9.64626,-8.894705 3.52154,-1.305906 6.46248,-1.297115 10.04123,0.03 7.39685,2.743001 7.61604,10.719675 0.50589,18.409435 -4.29575,4.64575 -6.65938,5.66799 -13.10585,5.66799 -10.43147,0 -15.63075,2.2784 -20.09699,8.80677 l -2.39262,3.49735 3.1845,8.57279 3.18449,8.57278 -2.34685,1.76006 c -1.29076,0.96803 -2.19503,1.87042 -2.00947,2.00531 0.18557,0.13488 1.77126,0.71188 3.52377,1.28222 l 3.18638,1.03697 3.44117,9.32811 c 1.89265,5.13045 3.6416,10.40713 3.88656,11.72596 0.55448,2.98517 -0.7722,7.81395 -3.04535,11.08431 -1.7615,2.53425 -2.08474,2.78753 -2.67276,2.09431 z m -13.55459,-56.61379 c 0.52986,-0.24413 0.85399,-1.00626 0.72029,-1.69361 -0.19428,-0.99883 -0.67496,-1.24974 -2.39411,-1.24974 -2.39042,0 -3.28484,1.32668 -1.78189,2.64305 0.97983,0.85818 2.04414,0.95067 3.45571,0.3003 z m 34.86575,-19.35568 c 5.36821,-4.31919 6.26689,-9.77649 2.10778,-12.799719 -2.71783,-1.975585 -6.79793,-2.133947 -10.15895,-0.394297 -5.00647,2.591316 -8.3602,10.699686 -5.26713,12.734406 2.25219,1.48156 5.52246,2.46699 8.19798,2.47028 2.12492,0.003 3.08817,-0.37563 5.12032,-2.01067 z m -55.87416,-2.97066 c 0.95798,-0.45627 2.07522,-1.46518 2.48275,-2.24204 1.56787,-2.98872 -1.52366,-10.280741 -5.15561,-12.160621 -6.2581,-3.239159 -13.86504,1.366055 -12.67564,7.673791 0.53289,2.82603 2.77969,6.12344 4.95138,7.26666 1.97198,1.03809 7.71175,0.7412 10.39712,-0.53779 z m -15.16003,73.26472 c -1.59725,-3.40741 -1.50988,-9.29141 0.19047,-12.82968 0.7482,-1.55692 3.4223,-5.65809 5.94244,-9.11371 3.97442,-5.44972 4.79702,-6.26077 6.20275,-6.11565 1.50314,0.15518 1.62303,-0.0347 1.65322,-2.61789 0.0223,-1.90691 0.57987,-3.52819 1.76819,-5.14132 l 1.73564,-2.3561 0.0326,5.16218 0.0326,5.16218 2.52103,-0.21394 c 1.38657,-0.11767 2.52104,-0.15893 2.52104,-0.0917 0,0.0672 -4.82176,6.99128 -10.71501,15.38679 l -10.715,15.26457 -1.16987,-2.49571 z m 23.34433,-34.55615 c -0.0236,-5.1602 0.0184,-5.29673 1.81047,-5.89026 2.0498,-0.67889 6.09359,-0.82186 6.07951,-0.21494 -0.005,0.21597 -1.77687,2.86659 -3.93746,5.89026 l -3.92835,5.49759 -0.0242,-5.28265 z m -94.99063,2.48477 c -3.56685,-2.59272 -4.3473,-5.02191 -2.15773,-6.71607 1.91259,-1.47986 2.42895,-1.19991 2.14866,1.16491 -0.29906,2.52317 3.00209,4.94577 6.73933,4.94577 3.65966,0 6.84281,-2.31382 6.84281,-4.974 0,-2.80447 -3.32404,-5.11672 -7.02268,-4.88509 -2.46233,0.1542 -2.70131,0.0535 -2.70131,-1.13793 0,-1.15195 0.34475,-1.32554 2.90463,-1.46253 2.09211,-0.11195 3.6033,0.1829 5.40222,1.05407 5.84601,2.83105 6.50436,8.35438 1.43501,12.03926 -2.51138,1.82551 -3.05303,1.98412 -6.77594,1.98412 -3.73295,0 -4.26081,-0.15588 -6.815,-2.01251 z m -0.11255,45.55588 c 0,-0.93418 -1.28808,-2.18061 -2.25349,-2.18061 -0.72802,0 -2.78858,1.54755 -2.78858,2.09432 0,0.24683 0.50871,0.81856 1.13047,1.27051 1.38576,1.0073 3.9116,0.24261 3.9116,-1.18422 z m 209.56781,0.20896 c 1.03742,-0.90863 -0.1574,-2.91315 -1.73642,-2.91315 -1.87722,0 -3.34022,1.54072 -2.52037,2.65426 0.87699,1.19114 3.04206,1.32282 4.25679,0.25889 z m -194.30368,-3.9263 c 0.66494,-0.77395 1.37511,-0.93976 3.00819,-0.70234 1.8959,0.27562 2.07155,0.19773 1.55259,-0.68851 -0.72363,-1.23574 -0.74313,-2.30381 -0.063,-3.44998 0.42116,-0.70974 0.0582,-0.91229 -1.87669,-1.04715 -1.31937,-0.092 -2.34025,-0.41281 -2.26862,-0.71299 0.0716,-0.30018 -0.49561,-0.58006 -1.26052,-0.62194 -1.02553,-0.0562 -1.39075,0.262 -1.39075,1.21149 0,0.86538 -0.59051,1.4832 -1.80074,1.88402 -0.9904,0.32803 -1.80074,0.76865 -1.80074,0.97918 0,0.21053 0.81034,0.53061 1.80074,0.7113 1.41699,0.25852 1.80074,0.66113 1.80074,1.88929 0,1.78543 1.02548,2.02973 2.29881,0.54763 z m 176.32347,-3.29642 c 0.006,-0.5264 0.76585,-1.044 1.81177,-1.23482 2.26995,-0.41412 2.31033,-1.05567 0.0919,-1.4604 -1.19742,-0.21846 -1.84521,-0.80743 -2.16454,-1.96803 -0.45136,-1.64047 -0.46999,-1.64687 -1.95279,-0.67145 -0.92794,0.61044 -2.29941,0.92366 -3.60758,0.82391 -2.02619,-0.15449 -2.07671,-0.10702 -1.26482,1.18824 0.64943,1.03608 0.64628,1.66726 -0.0136,2.72002 -0.8355,1.33292 -0.7988,1.36441 1.32609,1.13772 1.51338,-0.16146 2.55632,0.0648 3.39174,0.73582 1.31201,1.05382 2.36037,0.49439 2.38185,-1.27101 z m -198.43041,-0.14087 c 0,-1.30731 -0.28883,-1.57074 -1.72223,-1.57074 -2.3057,0 -3.5694,1.453 -2.26065,2.59927 0.5366,0.46999 1.65227,0.78426 2.47926,0.69837 1.14275,-0.11869 1.50362,-0.53314 1.50362,-1.7269 z m 222.83463,0.4062 c 1.53384,-1.99229 -2.17436,-3.77293 -4.1867,-2.01041 -0.63722,0.55812 -0.65342,1.03041 -0.0629,1.83253 0.96764,1.31427 3.29951,1.41188 4.24955,0.17788 z m -228.2122,-6.98441 c 1.0104,-1.37234 -0.3192,-2.70383 -2.47529,-2.4788 -1.54375,0.16111 -2.29368,1.48021 -1.5945,2.80464 0.59105,1.1196 3.15681,0.91418 4.06979,-0.32584 z m 233.20707,-0.0713 c 1.26283,-0.91794 1.05588,-2.40183 -0.41476,-2.97394 -2.85438,-1.11042 -5.2969,1.85361 -2.50244,3.03672 1.6364,0.69281 1.88509,0.68746 2.9172,-0.0628 z m -237.6988,-8.05658 c 0.11816,-0.60113 -0.28288,-1.39323 -0.8912,-1.76021 -2.19567,-1.32458 -5.07104,0.76552 -3.2488,2.36154 1.27741,1.11883 3.87608,0.74137 4.14,-0.60133 z m 242.47191,0.009 c 0.85332,-0.62028 0.94801,-1.06954 0.38625,-1.83253 -0.8391,-1.13969 -2.85386,-1.32534 -4.15094,-0.3825 -1.13912,0.82802 -1.09096,1.2265 0.26754,2.21399 1.42126,1.03311 2.07704,1.0333 3.49715,0.001 z m -218.95316,-3.21081 c 2.93857,0.34663 2.94542,0.33759 1.3944,-1.8426 -1.0702,-1.50434 -1.0702,-1.74844 0,-3.06536 1.65263,-2.03361 1.49305,-2.23064 -1.51894,-1.87535 -2.24287,0.26457 -3.00104,0.094 -4.63282,-1.04241 l -1.95109,-1.35876 -0.49437,1.91553 c -0.38899,1.50723 -1.0515,2.1233 -3.10816,2.89027 l -2.61378,0.97473 2.62235,0.90899 c 2.19785,0.76185 2.69726,1.24952 3.08512,3.01268 l 0.46279,2.10369 2.09865,-1.46153 c 1.75038,-1.21898 2.52304,-1.41146 4.65585,-1.15988 z m 198.13634,-2.57682 c 0.17862,-0.6149 1.29279,-1.40378 2.49299,-1.76515 2.5188,-0.75839 2.76199,-1.36637 0.73372,-1.8343 -2.2865,-0.52752 -3.60574,-1.78672 -3.60574,-3.44165 0,-1.88601 -0.45445,-1.92023 -2.3416,-0.17631 -1.32362,1.22315 -1.78872,1.32212 -4.71454,1.00319 l -3.24606,-0.35383 1.49386,1.71502 c 1.48627,1.70631 1.48678,1.72509 0.10085,3.69982 l -1.39301,1.98479 3.06944,-0.30224 c 2.68325,-0.26422 3.296,-0.12554 4.87018,1.10219 1.58846,1.23887 1.82527,1.29102 2.00885,0.44234 0.11447,-0.52915 0.35344,-1.46239 0.53106,-2.07387 z m -225.86027,-1.48099 c 1.49991,-1.31371 0.60866,-2.64305 -1.77202,-2.64305 -1.48832,0 -2.2172,0.28704 -2.39057,0.94142 -0.28599,1.07944 1.05639,2.46185 2.39057,2.46185 0.49723,0 1.29464,-0.3421 1.77202,-0.76022 z m 250.55048,-1.92169 c 0.23073,-1.44623 -1.17092,-2.23422 -3.04453,-1.7116 -2.69416,0.75149 -1.55687,3.5397 1.32187,3.24072 1.01566,-0.10548 1.57471,-0.60172 1.72266,-1.52912 z m -253.0428,-7.52789 c 0,-1.30731 -0.28883,-1.57074 -1.72223,-1.57074 -2.30569,0 -3.5694,1.453 -2.26065,2.59928 0.5366,0.46999 1.65227,0.78425 2.47926,0.69836 1.14276,-0.11868 1.50362,-0.53314 1.50362,-1.7269 z m 255.31608,0.54873 c 1.49991,-1.31371 0.60865,-2.64305 -1.77202,-2.64305 -1.48832,0 -2.21721,0.28704 -2.39058,0.94142 -0.28598,1.07944 1.05639,2.46185 2.39058,2.46185 0.49722,0 1.29463,-0.3421 1.77202,-0.76022 z m -25.90193,-7.35526 v -3.40327 h 2.14429 c 2.45075,0 3.72483,1.14216 5.11046,4.58132 0.89515,2.22177 0.90192,2.22521 4.384,2.22521 1.9181,0 3.48746,-0.11242 3.48746,-0.24983 0,-1.02019 -3.87705,-7.46929 -4.79143,-7.97007 -1.04613,-0.57294 -1.04215,-0.70397 0.0453,-1.49446 1.27646,-0.92786 4.27902,-4.94115 3.89597,-5.20747 -0.29794,-0.20715 -3.40985,-0.39432 -5.31906,-0.31992 -0.95937,0.0374 -1.92905,0.73139 -2.73198,1.95531 -1.41858,2.16236 -1.95389,2.17886 -1.38943,0.0428 0.28765,-1.08858 1.23873,-1.77787 3.71554,-2.69286 l 3.32892,-1.22976 -3.36773,-1.18932 c -3.17853,-1.12251 -3.39511,-1.33407 -3.85525,-3.76596 l -0.48752,-2.57664 -1.91936,1.33666 c -1.55074,1.07996 -2.712,1.3555 -6.04642,1.4347 -2.26987,0.0539 -4.12705,0.19119 -4.12705,0.30504 0,0.11385 0.48257,0.88532 1.07236,1.71438 1.16685,1.64019 1.07373,3.8342 -0.23836,5.61629 -1.08817,1.47802 -1.05286,1.72518 0.24648,1.72518 0.59424,0 1.04205,0.17671 0.99514,0.39269 -0.0469,0.21597 -0.0469,3.0433 0,6.28295 l 0.0853,5.89026 h 2.88118 2.88118 z m 0.74116,-7.57145 c -0.58277,-0.2679 -0.87206,-0.6234 -0.64287,-0.79 0.2292,-0.1666 0.82673,0.0562 1.32786,0.49511 1.03909,0.91009 0.83985,0.99586 -0.68499,0.29489 z m -231.5959,6.31957 c 0,-1.75962 -2.13081,-2.65943 -3.66199,-1.54642 -1.79387,1.30396 -0.69794,3.16485 1.74301,2.95964 1.48151,-0.12456 1.91898,-0.44674 1.91898,-1.41322 z m 258.08192,0.36179 c 2.15666,-1.56766 -0.29201,-4.04181 -2.9358,-2.96634 -2.08329,0.84746 -1.10573,3.59464 1.27912,3.59464 0.43578,0 1.18128,-0.28273 1.65668,-0.6283 z m -258.80221,-9.05792 c 0,-1.30731 -0.28884,-1.57073 -1.72224,-1.57073 -2.30569,0 -3.5694,1.453 -2.26065,2.59927 0.53661,0.46999 1.65228,0.78425 2.47927,0.69836 1.14275,-0.11868 1.50362,-0.53314 1.50362,-1.7269 z m 260.38686,-1.52505 c 0,-3.57042 -4.44108,-3.82123 -4.91869,-0.27778 -0.16231,1.20412 0.15217,1.96335 0.99987,2.41391 1.95576,1.03952 3.91882,-0.0305 3.91882,-2.13613 z M 127.45153,133.3616 c 1.28186,-1.12273 -0.009,-2.57401 -2.28949,-2.57401 -1.2672,0 -1.78647,0.33019 -1.96533,1.24973 -0.38475,1.97796 2.48773,2.87199 4.25482,1.32428 z m 258.92166,-2.89419 c 0.96693,-2.21451 -3.29798,-3.42699 -4.44067,-1.26244 -0.68963,1.30634 0.28913,2.36799 2.18314,2.36799 1.17344,0 1.93837,-0.3746 2.25753,-1.10555 z m -257.48106,-5.48308 c 1.28186,-1.12273 -0.009,-2.57401 -2.2895,-2.57401 -1.2672,0 -1.78647,0.33019 -1.96533,1.24973 -0.38475,1.97796 2.48773,2.87199 4.25483,1.32428 z m 255.51372,-3.42339 c 0.23072,-1.44623 -1.17093,-2.23422 -3.04453,-1.71161 -2.69416,0.7515 -1.55687,3.5397 1.32186,3.24073 1.01567,-0.10549 1.57471,-0.60172 1.72267,-1.52912 z M 131.585,115.78016 c 0.16543,-1.03967 -0.16438,-1.48403 -1.29508,-1.74489 -2.69093,-0.62082 -4.64699,1.39032 -2.71683,2.79334 1.50704,1.09547 3.76466,0.50547 4.01191,-1.04845 z m 249.66917,-1.2604 c 1.3585,-0.98749 1.40666,-1.38597 0.26754,-2.21399 -1.29708,-0.94284 -3.31184,-0.75719 -4.15094,0.3825 -0.56176,0.76299 -0.46707,1.21225 0.38625,1.83253 1.42011,1.03226 2.07589,1.03207 3.49715,-10e-4 z m -212.05218,-5.22593 c 0.86982,-1.02304 1.46349,-1.93337 1.31926,-2.02295 -0.14423,-0.0896 -2.45089,-1.15891 -5.12592,-2.37628 l -4.86368,-2.21339 1.82754,-2.17751 c 1.00514,-1.197621 2.09588,-2.502752 2.42386,-2.90028 0.46998,-0.569633 1.52995,-0.261925 5.00263,1.452278 2.42346,1.196282 4.82527,2.291922 5.33736,2.434762 1.03037,0.28741 3.7335,-2.63301 3.11281,-3.363026 -0.21437,-0.252124 -4.77125,-2.512091 -10.12639,-5.022146 -5.35516,-2.51006 -9.57777,-4.750603 -9.38359,-4.978988 0.19419,-0.228385 -0.21069,-0.382946 -0.89971,-0.343468 -0.68902,0.03948 -1.1671,-0.23282 -1.06241,-0.605111 0.29619,-1.053227 -2.28375,0.124492 -3.68982,1.68437 -0.65035,0.721482 -1.18245,1.413324 -1.18245,1.537418 0,0.124098 1.67352,1.015927 3.71895,1.981842 2.04541,0.96592 4.00834,1.896069 4.36205,2.067002 0.63107,0.304969 -3.54978,5.710377 -4.41673,5.710377 -0.24319,0 -2.12676,-0.824639 -4.1857,-1.832529 -2.05893,-1.00789 -4.04316,-1.832528 -4.40939,-1.832528 -0.87652,0 -3.14874,2.538836 -2.85178,3.186415 0.16291,0.355252 22.04433,11.056642 23.39028,11.439312 0.0667,0.019 0.833,-0.80254 1.70283,-1.82557 z m -34.62633,-0.47089 c 1.49992,-1.31371 0.60866,-2.64305 -1.77202,-2.64305 -1.48831,0 -2.2172,0.28704 -2.39057,0.94142 -0.28599,1.07944 1.05639,2.46185 2.39057,2.46185 0.49723,0 1.29464,-0.3421 1.77202,-0.76022 z m 207.53838,-1.3675 2.08764,-1.08055 -2.85049,-3.05117 -2.85049,-3.05117 2.948,-1.418094 c 1.6214,-0.779956 3.14918,-1.199992 3.39507,-0.933411 0.24589,0.266575 1.41947,1.585518 2.60796,2.930985 2.40272,2.72007 3.04785,2.89209 5.47919,1.461 l 1.67715,-0.98719 -2.73012,-2.98889 c -1.50157,-1.643893 -2.62555,-3.044865 -2.49773,-3.113281 3.79705,-2.032294 3.55128,-2.081867 6.50316,1.311702 l 2.75046,3.162016 2.15212,-1.113931 c 1.18367,-0.612661 2.15213,-1.249077 2.15213,-1.414256 0,-0.391443 -7.97185,-9.576375 -8.31159,-9.576375 -0.18675,0 -22.19282,10.361205 -23.94913,11.276066 -0.32291,0.168199 8.44664,9.667109 8.92482,9.667109 0.23331,0 1.36364,-0.48625 2.51185,-1.08056 z m 35.80494,-1.84495 c 0.41131,-2.09253 -3.42446,-2.91922 -4.45831,-0.96085 -0.71897,1.36191 0.36508,2.38076 2.35468,2.21305 1.27584,-0.10755 1.95851,-0.51391 2.10363,-1.2522 z M 138.8091,101.26955 c 0.52987,-0.24413 0.854,-1.00626 0.7203,-1.693613 -0.29212,-1.501761 -3.25088,-1.752969 -4.4446,-0.377359 -1.37242,1.581542 1.41838,3.133422 3.7243,2.070972 z m 234.18444,-2.394643 c 1.45012,-1.270094 0.21728,-2.992031 -2.0078,-2.804359 -2.13877,0.180394 -2.9148,1.596995 -1.53627,2.804385 1.10593,0.968637 2.43812,0.968627 3.54407,-2.6e-5 z M 182.43689,95.27067 c 1.95502,-1.137104 2.03853,-1.332917 1.26052,-2.955212 -1.2594,-2.626069 -1.13953,-2.834475 3.16955,-5.510431 l 4.00276,-2.485745 2.76625,0.906735 c 2.71242,0.88909 2.80974,0.883362 5.00093,-0.294221 1.22907,-0.660526 2.22688,-1.333352 2.21736,-1.495175 -0.01,-0.161822 -6.08997,-2.56381 -13.51209,-5.337754 l -13.49477,-5.04354 -2.28578,1.387103 -2.28579,1.387098 5.17352,10.327999 c 2.84542,5.680395 5.33557,10.328659 5.53365,10.329471 0.19809,0.001 1.30234,-0.546533 2.45389,-1.216328 z m -3.74437,-12.959582 c -0.84274,-1.702543 -1.30231,-3.084416 -1.02125,-3.070829 0.28105,0.01356 2.22897,0.671475 4.32871,1.461985 l 3.81771,1.437283 -2.79646,1.633547 -2.79646,1.633551 z m -34.67694,11.546269 c 1.68668,-0.65616 1.78535,-1.716073 0.26277,-2.82283 -0.85332,-0.620274 -1.47137,-0.689109 -2.52103,-0.280765 -1.56789,0.609939 -1.8233,2.074458 -0.52622,3.017299 1.04798,0.761766 1.04813,0.761771 2.78448,0.0863 z M 332.9934,92.319526 c 1.01316,-0.279999 3.29819,-1.484708 5.07784,-2.677129 4.29407,-2.877152 6.10754,-6.691343 4.74877,-9.987919 -1.0849,-2.632148 -9.50488,-9.309156 -11.5949,-9.194717 -0.72645,0.03979 -1.17998,0.237977 -1.00783,0.44044 0.17214,0.202463 -3.81236,3.480719 -8.85445,7.285009 l -9.16744,6.916891 4.8939,3.370259 c 2.69165,1.853643 5.60026,3.577177 6.4636,3.830071 2.14171,0.627379 7.19913,0.636537 9.44051,0.01707 z m -9.64394,-5.29592 -3.06969,-1.616379 2.41177,-1.917782 c 6.7041,-5.330937 9.57533,-7.341717 10.1285,-7.093211 0.33518,0.150581 0.39199,0.529517 0.12623,0.842083 -0.27553,0.324075 -0.15059,0.418884 0.29073,0.220621 1.29411,-0.581378 3.77068,2.254396 3.76775,4.31423 -0.005,3.500929 -4.34646,6.866816 -8.85716,6.866816 -0.95064,0 -3.1098,-0.727372 -4.79813,-1.616378 z m 43.76634,4.653138 c 2.15666,-1.567665 -0.29201,-4.041818 -2.93579,-2.966349 -2.08329,0.847465 -1.10574,3.594644 1.27911,3.594644 0.43578,0 1.18129,-0.282733 1.65668,-0.628295 z M 151.07432,86.166501 c 0.91723,-1.191389 -0.25063,-2.76231 -2.05357,-2.76231 -1.82002,0 -2.97916,1.52071 -2.08492,2.735272 0.87298,1.185709 3.23456,1.201138 4.13849,0.02702 z m 210.08852,-2.297115 c 0.64308,-1.472802 -1.16035,-2.783704 -3.1865,-2.316252 -1.47344,0.339934 -2.13068,2.280455 -1.04071,3.07274 1.08995,0.792291 3.75956,0.314546 4.22721,-0.756488 z m -50.05949,-0.07251 c 0.36238,-1.78662 2.10737,-18.09412 2.11859,-19.79904 0.0145,-2.202777 -0.17438,-2.455933 -2.41098,-3.231211 l -2.42674,-0.841183 -10.71866,7.225268 c -9.85811,6.645189 -10.75618,7.1276 -11.186,6.008768 -0.25704,-0.669071 -0.70246,-5.214996 -0.98983,-10.102048 -0.49747,-8.460148 -0.59579,-8.899858 -2.05369,-9.184258 -4.00407,-0.781096 -4.28662,-0.583309 -8.34152,5.839057 -2.13633,3.383631 -4.0825,6.325325 -4.32482,6.537092 -0.24232,0.211772 -1.35507,-2.770761 -2.47279,-6.62785 l -2.03221,-7.012888 -2.53797,-0.346093 c -1.39588,-0.190351 -2.78362,-0.152951 -3.08389,0.08311 -0.30025,0.236061 -2.3062,4.823612 -4.45765,10.194558 l -3.91175,9.765356 2.8469,0.330908 c 1.5658,0.182001 2.91258,0.264198 2.99283,0.182655 0.0803,-0.08155 1.04578,-2.504368 2.1456,-5.384054 1.09982,-2.879686 2.22242,-5.534406 2.49467,-5.899378 0.27225,-0.364967 1.23981,2.146367 2.15013,5.580743 1.43844,5.426784 1.85814,6.28391 3.20569,6.546699 3.42713,0.668334 3.80781,0.393727 7.54511,-5.442695 2.02838,-3.167655 3.79522,-5.759373 3.92631,-5.759373 0.13109,0 0.31527,2.061594 0.4093,4.581319 0.2664,7.139292 0.59502,7.984584 3.10415,7.984584 1.16018,0 3.40579,0.480735 4.99024,1.068306 l 2.88081,1.068301 2.53023,-1.516034 2.53023,-1.516035 5.09493,1.796621 5.09492,1.79662 -0.42077,2.231422 c -0.3981,2.111244 -0.29629,2.276476 1.89044,3.068049 2.20218,0.797165 3.36014,1.058929 3.41819,0.772703 z m -7.84468,-11.606936 -3.13622,-1.166738 3.42762,-2.193117 c 1.88518,-1.206212 3.47999,-2.13136 3.54401,-2.055876 0.064,0.07548 -0.0671,1.587414 -0.2914,3.359855 l -0.4078,3.222615 z m -97.79313,9.898277 c 1.43494,-0.435817 2.60899,-0.880938 2.60899,-0.989156 0,-0.108219 -1.61035,-2.823847 -3.57855,-6.034733 -1.9682,-3.210887 -3.1837,-5.662667 -2.70111,-5.448398 0.48259,0.21427 4.53476,2.120832 9.00481,4.236804 7.98568,3.780148 8.17092,3.835784 10.62437,3.190896 1.37334,-0.360981 2.49699,-0.844831 2.49699,-1.075217 0,-0.445571 -10.72574,-18.336929 -11.19916,-18.681053 -0.22743,-0.165315 -4.41659,0.860466 -5.22976,1.280588 -0.12225,0.06316 0.24647,0.906035 0.81938,1.873059 0.5729,0.967023 2.19244,3.688729 3.59897,6.048228 l 2.55731,4.29001 -8.65976,-4.159115 c -4.76287,-2.287507 -9.13986,-4.15911 -9.72664,-4.15911 -0.91969,0 -3.63605,0.825434 -4.49402,1.365616 -0.2268,0.142801 10.8612,19.042353 11.17707,19.051354 0.0506,0.0016 1.26615,-0.353956 2.70111,-0.789773 z M 158.34736,79.25192 c 0.56177,-0.762996 0.46707,-1.212253 -0.38625,-1.832527 -1.4201,-1.032268 -2.07588,-1.032075 -3.49715,0.001 -1.3585,0.987486 -1.40666,1.385972 -0.26754,2.213992 1.29708,0.94284 3.31184,0.757184 4.15094,-0.382501 z m 195.25153,-1.640567 c 0.59057,-0.802119 0.57437,-1.274413 -0.0629,-1.832528 -2.02048,-1.769656 -5.78226,-0.169556 -4.3082,1.832528 0.43762,0.594341 1.42111,1.080625 2.18556,1.080625 0.76445,0 1.74793,-0.486284 2.18553,-1.080625 z m -117.43283,-3.13387 c 2.57506,-0.315325 5.61266,-0.905944 6.75022,-1.312487 1.13757,-0.406539 2.4341,-0.587362 2.88119,-0.401832 0.44708,0.185531 0.57936,0.14944 0.29394,-0.0802 -0.28542,-0.229637 0.10045,-1.049824 0.85749,-1.822627 5.05426,-5.159544 2.36653,-13.526909 -5.20036,-16.189575 -3.58191,-1.260414 -6.00973,-1.36069 -12.63608,-0.521905 l -4.65058,0.588685 0.43484,2.683686 c 0.23916,1.476027 1.14066,6.154168 2.00332,10.395867 1.48211,7.28747 1.65152,7.699003 3.07629,7.472943 0.8293,-0.131576 3.61467,-0.497228 6.18973,-0.812555 z m -3.88773,-9.822944 c -1.35265,-6.577519 -1.23879,-6.881883 2.58032,-6.897716 5.17314,-0.02144 8.50305,2.679307 8.50767,6.900214 0.004,3.180498 -2.00011,4.8758 -6.54422,5.537238 l -3.30559,0.481159 z m -66.31808,8.783168 c 1.29255,-1.038189 1.28614,-1.095134 -0.24851,-2.210672 l -1.57524,-1.145026 -1.57523,1.145026 c -1.53466,1.115538 -1.54106,1.172483 -0.24851,2.210672 0.72969,0.5861 1.55038,1.065636 1.82374,1.065636 0.27336,0 1.09405,-0.479536 1.82375,-1.065636 z m 179.33059,-2.542354 c 0,-1.759614 -2.1308,-2.659427 -3.66199,-1.546418 -1.79387,1.303959 -0.69793,3.164854 1.74301,2.959637 1.48151,-0.124554 1.91898,-0.446734 1.91898,-1.413219 z M 174.56149,67.89783 c 1.33811,-0.972664 1.17027,-1.721947 -0.5638,-2.517039 -1.28533,-0.589341 -3.40372,0.01482 -3.90803,1.114601 -0.27721,0.604498 1.68991,2.248579 2.69039,2.248579 0.33957,0 1.14121,-0.380763 1.78144,-0.846141 z m 161.77577,-1.553852 c 1.27956,-1.120717 -0.007,-2.57401 -2.27963,-2.57401 -1.95999,0 -2.69952,1.455147 -1.34324,2.643049 1.12963,0.989392 2.44299,0.964365 3.62287,-0.06904 z M 184.20791,62.605433 c 0.91723,-1.191389 -0.25062,-2.76231 -2.05357,-2.76231 -1.82001,0 -2.97915,1.520711 -2.08491,2.735272 0.87298,1.185709 3.23456,1.201138 4.13848,0.02702 z m 142.3038,-0.967182 c 1.42126,-1.033111 1.42153,-1.509792 0.001,-2.54206 -0.85332,-0.620275 -1.47137,-0.689108 -2.52104,-0.280767 -1.56788,0.609942 -1.82329,2.074459 -0.52621,3.0173 1.13912,0.82802 1.68732,0.793013 3.04582,-0.194473 z M 193.88612,58.212657 c 1.08032,-1.247128 0.0824,-2.558168 -1.94709,-2.558168 -2.0965,0 -3.17555,1.737867 -1.81756,2.927267 1.08072,0.946556 2.7683,0.781099 3.76465,-0.369099 z m 122.54145,-0.76304 c 0.62254,-0.452521 1.13189,-1.024719 1.13189,-1.271549 0,-0.546766 -2.06055,-2.094317 -2.78857,-2.094317 -0.9286,0 -2.25349,1.231309 -2.25349,2.094317 0,0.863008 1.32489,2.094317 2.25349,2.094317 0.28864,0 1.03414,-0.370245 1.65668,-0.822768 z M 204.06146,54.831721 c 0.62254,-0.452522 1.13189,-1.024719 1.13189,-1.271549 0,-0.546766 -2.06056,-2.094318 -2.78857,-2.094318 -0.9286,0 -2.2535,1.231309 -2.2535,2.094318 0,0.863008 1.3249,2.094317 2.2535,2.094317 0.28863,0 1.03414,-0.370246 1.65668,-0.822768 z m 101.94456,-0.984608 c 1.49991,-1.313705 0.60865,-2.643048 -1.77202,-2.643048 -1.48832,0 -2.21721,0.287038 -2.39058,0.941416 -0.28599,1.079445 1.05639,2.461849 2.39058,2.461849 0.49722,0 1.29463,-0.342097 1.77202,-0.760217 z m -91.40147,-1.876101 c 1.68668,-0.656159 1.78535,-1.716072 0.26277,-2.822828 -0.85332,-0.620275 -1.47137,-0.689107 -2.52104,-0.280767 -1.56788,0.609942 -1.82329,2.07446 -0.52621,3.017301 1.04797,0.761767 1.04813,0.761772 2.78448,0.08629 z m 81.01139,-1.610699 c 0.96694,-2.214518 -3.29797,-3.426993 -4.44067,-1.262441 -0.68963,1.306344 0.28914,2.367982 2.18315,2.367982 1.17344,0 1.93836,-0.374594 2.25752,-1.105541 z m -68.95192,-2.121885 c 0.16543,-1.039668 -0.16438,-1.484029 -1.29508,-1.74489 -2.69093,-0.620817 -4.64699,1.390328 -2.71683,2.793347 1.50704,1.095463 3.76466,0.505468 4.01191,-1.048457 z m 57.62365,-0.523579 c 0.16543,-1.039668 -0.16439,-1.484029 -1.29508,-1.74489 -2.69093,-0.620818 -4.64699,1.390328 -2.71684,2.793347 1.50705,1.095463 3.76466,0.505467 4.01192,-1.048457 z m -46.10603,-0.745234 c 0.11815,-0.601136 -0.28289,-1.393231 -0.8912,-1.760209 -2.19567,-1.324581 -5.07105,0.765516 -3.2488,2.361538 1.2774,1.118822 3.87607,0.741368 4.14,-0.601329 z m 34.3042,0.145547 c 0.81077,-0.934301 -0.0204,-2.474146 -1.53337,-2.840734 -0.83162,-0.201499 -3.0934,1.228393 -3.0934,1.955633 0,0.727241 2.26178,2.157132 3.0934,1.955634 0.42092,-0.101987 1.11093,-0.583728 1.53337,-1.070533 z M 249.85168,45.75217 c 0,-1.508835 -1.77761,-2.325953 -3.55544,-1.634337 -1.80806,0.703377 -1.94235,2.398394 -0.24471,3.088975 1.61888,0.658548 3.80015,-0.176405 3.80015,-1.454638 z m 11.38653,-0.131639 c 0.2741,-1.722617 -2.26999,-2.576574 -3.97778,-1.335193 -1.70779,1.241382 -0.53298,3.090667 1.83685,2.891428 1.47264,-0.12381 1.9706,-0.485779 2.14093,-1.556235 z"
         id="path3184" />
    </g>
  </g>
</svg>
