<?xml version="1.0" encoding="UTF-8" standalone="no"?>
<!-- Created with Inkscape (http://www.inkscape.org/) -->

<svg
   width="64.012932mm"
   height="51.997406mm"
   viewBox="0 0 64.012932 51.997406"
   version="1.1"
   id="svg1623"
   inkscape:version="1.1 (c68e22c387, 2021-05-23)"
   sodipodi:docname="jquery.svg"
   xmlns:inkscape="http://www.inkscape.org/namespaces/inkscape"
   xmlns:sodipodi="http://sodipodi.sourceforge.net/DTD/sodipodi-0.dtd"
   xmlns="http://www.w3.org/2000/svg"
   xmlns:svg="http://www.w3.org/2000/svg">
  <sodipodi:namedview
     id="namedview1625"
     pagecolor="#ffffff"
     bordercolor="#666666"
     borderopacity="1.0"
     inkscape:pageshadow="2"
     inkscape:pageopacity="0.0"
     inkscape:pagecheckerboard="0"
     inkscape:document-units="mm"
     showgrid="false"
     fit-margin-top="10"
     fit-margin-left="10"
     fit-margin-right="10"
     fit-margin-bottom="10"
     inkscape:zoom="0.45611672"
     inkscape:cx="154.5657"
     inkscape:cy="137.02633"
     inkscape:window-width="1920"
     inkscape:window-height="1009"
     inkscape:window-x="1358"
     inkscape:window-y="-8"
     inkscape:window-maximized="1"
     inkscape:current-layer="layer1" />
  <defs
     id="defs1620" />
  <g
     inkscape:label="Calque 1"
     inkscape:groupmode="layer"
     id="layer1"
     transform="translate(-64.286504,-112.05989)">
    <g
       id="g1725">
      <g
         id="g979"
         transform="matrix(0.35277777,0,0,-0.35277777,89.747113,124.52722)">
        <path
           d="m 0,0 -3.489,-4.431 c -4.471,-6.425 -3.916,-14.789 -0.5,-21.619 0.081,-0.162 0.17,-0.323 0.254,-0.484 0.054,-0.103 0.098,-0.205 0.153,-0.305 l 0.102,-0.179 c 0.058,-0.108 0.119,-0.208 0.178,-0.314 0.108,-0.188 0.22,-0.374 0.331,-0.56 0.062,-0.102 0.116,-0.203 0.179,-0.305 0.124,-0.199 0.253,-0.398 0.381,-0.595 l 0.161,-0.246 c 0.18,-0.266 0.365,-0.527 0.552,-0.789 l 0.009,-0.026 0.093,-0.127 c 0.163,-0.224 0.332,-0.443 0.501,-0.662 l 0.187,-0.237 c 0.151,-0.191 0.31,-0.38 0.467,-0.569 l 0.17,-0.213 c 0.21,-0.247 0.426,-0.489 0.645,-0.73 l 0.016,-0.016 0.026,-0.026 c 0.213,-0.233 0.433,-0.46 0.653,-0.688 l 0.204,-0.212 c 0.173,-0.172 0.351,-0.34 0.526,-0.509 l 0.213,-0.203 c 0.235,-0.222 0.469,-0.442 0.713,-0.654 l 0.017,-0.009 0.118,-0.11 c 0.214,-0.184 0.434,-0.363 0.654,-0.543 l 0.263,-0.213 c 0.178,-0.142 0.36,-0.285 0.543,-0.424 l 0.289,-0.221 c 0.201,-0.148 0.407,-0.299 0.611,-0.441 l 0.221,-0.153 0.059,-0.042 c 0.195,-0.133 0.396,-0.262 0.594,-0.391 l 0.255,-0.17 c 0.304,-0.192 0.613,-0.384 0.925,-0.568 l 0.255,-0.144 c 0.23,-0.132 0.454,-0.265 0.687,-0.391 0.127,-0.068 0.263,-0.129 0.391,-0.195 0.165,-0.087 0.324,-0.17 0.492,-0.255 l 0.119,-0.059 0.195,-0.094 c 0.261,-0.124 0.525,-0.247 0.79,-0.364 l 0.17,-0.077 c 0.302,-0.133 0.607,-0.26 0.916,-0.382 l 0.221,-0.085 c 0.286,-0.11 0.575,-0.221 0.865,-0.323 l 0.111,-0.042 c 0.32,-0.111 0.643,-0.213 0.968,-0.314 l 0.229,-0.068 c 0.33,-0.1 0.653,-0.217 0.993,-0.28 21.623,-3.944 27.909,12.995 27.909,12.995 -5.274,-6.873 -14.639,-8.689 -23.512,-6.671 -0.337,0.076 -0.666,0.184 -0.993,0.28 l -0.247,0.076 c -0.319,0.098 -0.635,0.197 -0.95,0.306 l -0.128,0.051 c -0.282,0.099 -0.563,0.206 -0.84,0.314 l -0.238,0.093 c -0.305,0.121 -0.609,0.243 -0.908,0.374 l -0.186,0.076 c -0.258,0.117 -0.509,0.235 -0.765,0.356 l -0.22,0.111 c -0.199,0.096 -0.39,0.195 -0.586,0.297 -0.133,0.068 -0.268,0.141 -0.399,0.212 -0.239,0.13 -0.478,0.263 -0.713,0.399 l -0.237,0.127 c -0.314,0.184 -0.621,0.376 -0.926,0.569 l -0.246,0.17 c -0.22,0.143 -0.444,0.284 -0.662,0.433 l -0.204,0.153 c -0.212,0.148 -0.423,0.296 -0.627,0.449 l -0.272,0.204 c -0.188,0.144 -0.375,0.292 -0.56,0.442 l -0.255,0.203 c -0.237,0.194 -0.465,0.386 -0.696,0.586 l -0.076,0.059 c -0.249,0.219 -0.497,0.447 -0.739,0.671 l -0.204,0.203 C 6.018,-27.348 5.844,-27.176 5.67,-27 l -0.212,0.203 c -0.22,0.226 -0.435,0.456 -0.646,0.688 l -0.033,0.034 c -0.223,0.244 -0.44,0.494 -0.654,0.746 l -0.169,0.204 c -0.161,0.193 -0.321,0.39 -0.476,0.586 l -0.17,0.212 c -0.187,0.241 -0.375,0.486 -0.551,0.73 C -2.167,-16.878 -3.938,-7.609 0,0 M 13.029,4.711 10.389,0.985 C 7.156,-3.668 7.333,-9.899 9.854,-14.82 c 0.424,-0.826 0.897,-1.622 1.427,-2.385 0.484,-0.694 1.03,-1.523 1.672,-2.08 0.234,-0.257 0.474,-0.508 0.721,-0.756 l 0.196,-0.186 c 0.24,-0.234 0.484,-0.463 0.738,-0.688 l 0.025,-0.025 0.009,-0.009 c 0.28,-0.245 0.571,-0.479 0.866,-0.713 l 0.195,-0.152 c 0.296,-0.227 0.599,-0.451 0.908,-0.663 l 0.026,-0.025 c 0.135,-0.094 0.278,-0.182 0.415,-0.271 l 0.196,-0.128 c 0.221,-0.141 0.444,-0.276 0.67,-0.407 l 0.094,-0.06 c 0.196,-0.111 0.394,-0.223 0.594,-0.331 l 0.212,-0.11 c 0.139,-0.071 0.276,-0.143 0.416,-0.212 l 0.059,-0.034 c 0.285,-0.141 0.574,-0.271 0.866,-0.399 l 0.195,-0.076 c 0.235,-0.099 0.466,-0.199 0.705,-0.289 0.101,-0.038 0.203,-0.074 0.305,-0.11 0.216,-0.081 0.435,-0.156 0.654,-0.23 0.099,-0.031 0.199,-0.062 0.297,-0.093 0.311,-0.097 0.619,-0.218 0.942,-0.271 16.695,-2.767 20.55,10.083 20.55,10.083 -3.474,-5.005 -10.204,-7.39 -17.384,-5.525 -0.319,0.083 -0.638,0.172 -0.95,0.271 l -0.28,0.093 c -0.222,0.073 -0.443,0.151 -0.662,0.23 -0.1,0.037 -0.198,0.072 -0.298,0.11 -0.239,0.091 -0.479,0.189 -0.712,0.288 l -0.196,0.077 c -0.292,0.129 -0.58,0.266 -0.866,0.407 -0.147,0.072 -0.296,0.147 -0.441,0.221 l -0.246,0.127 c -0.187,0.102 -0.378,0.208 -0.56,0.314 l -0.128,0.077 c -0.226,0.133 -0.45,0.266 -0.67,0.407 l -0.204,0.136 c -0.145,0.095 -0.291,0.192 -0.433,0.289 -0.309,0.212 -0.605,0.437 -0.9,0.662 l -0.203,0.152 c -3.144,2.48 -5.639,5.875 -6.824,9.72 -1.242,3.988 -0.972,8.462 1.179,12.095 m 10.458,2.283 -1.426,-1.96 c -1.907,-2.805 -2.087,-6.29 -0.765,-9.388 1.394,-3.288 4.246,-5.874 7.58,-7.096 0.138,-0.052 0.278,-0.098 0.416,-0.145 l 0.187,-0.059 c 0.198,-0.061 0.391,-0.131 0.594,-0.17 9.219,-1.78 11.719,4.727 12.385,5.687 -2.191,-3.154 -5.874,-3.906 -10.39,-2.809 -0.355,0.085 -0.745,0.21 -1.087,0.331 -0.442,0.158 -0.876,0.339 -1.298,0.543 -0.803,0.385 -1.566,0.857 -2.275,1.392 -4.041,3.066 -6.557,8.91 -3.921,13.674"
           style="fill:#106baf;fill-opacity:1;fill-rule:nonzero;stroke:none"
           id="path981" />
      </g>
      <g
         id="g983"
         transform="matrix(0.35277777,0,0,-0.35277777,77.643626,145.93212)">
        <path
           d="m 0,0 c -0.253,0 -0.504,-0.204 -0.56,-0.452 l -0.71,-3.143 -0.711,-3.143 c -0.056,-0.247 -0.145,-0.655 -0.197,-0.903 l -0.683,-3.209 -0.682,-3.209 c -0.053,-0.247 -0.163,-0.649 -0.245,-0.889 0,0 -0.943,-2.808 -2.531,-2.776 -0.067,0.002 -0.132,-0.002 -0.198,0 -0.767,0.014 -1.374,0.028 -1.374,0.028 -0.253,0.004 -0.505,-0.196 -0.564,-0.442 l -0.527,-2.202 -0.522,-2.202 c -0.059,-0.246 0.101,-0.452 0.353,-0.457 0.899,-0.01 2.914,-0.033 4.135,-0.033 3.965,0 6.057,2.2 7.397,8.521 l 1.567,7.256 1.472,6.803 C 5.475,-0.204 5.307,0 5.053,0 Z m 67.016,1.755 c 2.845,0 3.397,-1.387 3.204,-2.95 -0.034,-0.272 -0.284,-0.475 -0.536,-0.475 h -6.913 c -0.238,0 -0.364,0.162 -0.329,0.362 l 0.005,0.014 0.005,0.024 c 0,0 0.009,0.048 0.028,0.117 0.66,1.756 2.008,2.908 4.536,2.908 m 14.298,4.668 c -0.253,0 -0.507,-0.204 -0.559,-0.452 L 80.571,5.091 80.35,4.046 80.289,3.755 78.388,-5.147 76.581,-13.603 c -0.053,-0.248 -0.068,-0.553 -0.038,-0.677 0.031,-0.124 0.514,-0.221 0.768,-0.221 h 3.811 c 0.254,0 0.572,0.043 0.71,0.099 0.139,0.056 0.345,0.555 0.396,0.804 l 0.677,3.346 0.678,3.35 v 0.005 l 0.089,0.446 0.823,3.849 0.725,3.397 c 0.053,0.247 0.302,0.447 0.555,0.447 l 11.984,0.005 c 0.253,10e-4 0.411,0.204 0.353,0.452 L 97.905,2.564 97.698,3.449 97.59,3.901 c -0.411,1.595 -1.614,2.512 -4.23,2.512 l -4.075,0.005 -3.75,0.005 z M 38.079,6.475 c -0.254,0 -0.504,-0.205 -0.555,-0.452 L 36.517,1.242 35.505,-3.538 V -3.543 L 35.411,-3.99 c -1.161,-5.299 -0.851,-10.353 5.458,-10.511 0.103,-0.003 0.184,0 0.184,0 h 9.899 c 0.254,0 0.503,0.203 0.555,0.452 l 2.137,10.036 2.136,10.036 c 0.052,0.248 -0.113,0.452 -0.367,0.452 h -4.564 c -0.254,0 -0.506,-0.205 -0.56,-0.452 l -1.619,-7.496 -1.623,-7.5 C 46.994,-9.22 46.745,-9.424 46.492,-9.424 h -3.233 c -3.197,0 -2.829,2.212 -2.174,5.241 l 0.019,0.09 0.071,0.385 0.014,0.071 0.146,0.777 0.155,0.832 c 0.048,0.251 0.123,0.621 0.17,0.852 l 0.738,3.599 0.734,3.6 c 0.051,0.248 -0.113,0.452 -0.367,0.452 z M 1.497,6.531 C 1.243,6.531 0.988,6.326 0.932,6.079 L 0.457,3.981 -0.019,1.882 C -0.075,1.636 0.085,1.431 0.339,1.431 h 5.053 c 0.254,0 0.506,0.204 0.56,0.451 L 6.413,3.981 6.875,6.079 C 6.929,6.327 6.766,6.531 6.512,6.531 Z m 20.09,0.075 c 4.954,0.143 5.926,-3.541 4.668,-7.773 l -0.127,-0.442 v -0.005 l -0.993,-3.529 -0.997,-3.528 c -0.07,-0.244 -0.334,-0.448 -0.589,-0.448 H 18.28 c -4.001,0 -4.979,3.13 -4.005,7.745 0.974,4.72 2.886,7.655 6.823,7.952 0.168,0.013 0.33,0.024 0.489,0.028 M 68.192,6.78 c -8.873,0 -10.974,-5.386 -12.153,-10.822 -1.18,-5.54 -1.08,-10.718 8.102,-10.718 h 0.329 0.085 0.593 0.108 0.278 0.066 c 0.363,10e-4 0.731,0.004 1.101,0.005 h 0.018 c 2.426,0.009 4.854,0.029 5.84,0.037 0.252,0.004 0.498,0.206 0.55,0.452 l 0.371,1.816 0.076,0.353 0.442,2.169 c 0.051,0.248 -0.118,0.452 -0.372,0.452 h -8.252 c -3.283,0 -4.26,0.87 -3.901,3.435 h 13.198 0.009 c 0.21,0.003 0.403,0.151 0.48,0.343 l 0.033,0.113 h -0.005 c 1.96,7.39 1.397,12.365 -6.996,12.365 m 46.793,2.753 -1.449,-0.01 c -0.254,-0.002 -0.669,-0.004 -0.923,-0.004 h -3.834 c -0.254,0 -0.577,-0.172 -0.72,-0.381 L 99.575,-3.284 c -0.143,-0.21 -0.305,-0.181 -0.362,0.066 l -0.621,2.738 c -0.056,0.248 -0.311,0.447 -0.565,0.447 h -5.453 c -0.254,0 -0.403,-0.198 -0.334,-0.442 l 2.442,-8.559 c 0.069,-0.244 0.077,-0.644 0.014,-0.889 l -1.068,-4.14 c -0.064,-0.248 0.095,-0.448 0.348,-0.448 h 5.388 c 0.253,0 0.515,0.2 0.578,0.448 l 1.064,4.14 c 0.062,0.245 0.237,0.611 0.39,0.814 l 13.772,18.275 c 0.153,0.202 0.07,0.368 -0.183,0.367 m -92.654,2.583 c -8.977,0 -12.877,-6.464 -14.365,-13.49 -1.487,-7.077 0.462,-13.282 9.387,-13.23 l 7.043,0.023 6.578,0.023 c 0.254,0.002 0.514,0.203 0.579,0.447 l 1.148,4.376 c 0.064,0.246 -0.095,0.446 -0.348,0.447 l -1.097,0.005 -1.101,0.009 c -0.215,0.002 -0.336,0.14 -0.31,0.325 l 0.028,0.103 c 0,0 2.484,6.036 3.049,9.524 0.769,4.668 -1.564,11.438 -10.591,11.438"
           style="fill:#585858;fill-opacity:1;fill-rule:nonzero;stroke:none"
           id="path985" />
      </g>
    </g>
  </g>
</svg>
